<?xml version="1.0" encoding="UTF-8"?>
<svg id="Layer_1" data-name="Layer 1" xmlns="http://www.w3.org/2000/svg" viewBox="0 0 512 512">
  <defs>
    <style>
      .cls-1 {
        fill: #e53950;
      }

      .cls-2 {
        fill: #eb5569;
      }

      .cls-3 {
        fill: #fff9df;
      }

      .cls-4 {
        fill: #d9e7ec;
      }

      .cls-5 {
        fill: #a8d3d8;
      }

      .cls-6 {
        fill: #ffe177;
      }

      .cls-7 {
        fill: #fff3be;
      }

      .cls-8 {
        fill: #c5d3dd;
      }

      .cls-9 {
        fill: #ffc344;
      }
    </style>
  </defs>
  <path class="cls-2" d="M146.14,398.32H68.71l8.25-122.76,10.62-20.06-7.93-20.06,2.81-41.83c.26-3.91,3.51-6.95,7.43-6.95h35.05c3.92,0,7.17,3.04,7.43,6.95l2.81,41.83-7.38,20.06,10.08,20.06,8.25,122.76Z"/>
  <path class="cls-1" d="M146.13,398.32h-22.43l-8.25-122.76-2.7-40.11-3.27-48.78h15.46c3.92,0,7.17,3.04,7.43,6.95l2.81,41.83-7.38,20.06,10.07,20.06,8.25,122.76Z"/>
  <path class="cls-2" d="M263.24,371.33h-77.42l8.62-128.31,11.72-19.05-9.17-19.05,2.57-38.31c.26-3.91,3.51-6.95,7.43-6.95h35.05c3.92,0,7.17,3.04,7.43,6.95l2.57,38.31-9.89,19.05,12.45,19.05,8.62,128.31Z"/>
  <path class="cls-1" d="M263.24,371.33h-22.34l-8.63-128.31-2.55-38.09-3.04-45.27h15.37c3.92,0,7.17,3.04,7.43,6.95l2.57,38.32-9.89,19.05,12.45,19.05,8.63,128.31Z"/>
  <path class="cls-4" d="M301.95,62.05c0,5.37-2.18,10.23-5.69,13.74-3.51,3.52-8.37,5.69-13.74,5.69h-17.37c-1.09,0-2,.8-2.18,1.88-.68,4.05-2.63,7.69-5.41,10.47-3.52,3.52-8.38,5.69-13.74,5.69h-.51c-3.66,0-6.63,2.97-6.63,6.63v11.71c0,6.68-5.46,12.5-12.13,12.5-3.37,0-6.4-1.36-8.6-3.56-2.2-2.2-3.56-5.24-3.56-8.59v-12.07c0-3.7-3.03-6.61-6.73-6.63-5.32-.02-10.24-2.14-13.84-5.57-3.62-3.46-5.93-8.25-6-13.61-.07-5.46,2.12-10.42,5.69-13.99,3.52-3.52,8.38-5.69,13.74-5.69h17.82c.84,0,1.56-.62,1.68-1.45,.61-4.23,2.6-8.02,5.48-10.9,3.52-3.52,8.38-5.69,13.74-5.69h38.55c10.74,0,19.43,8.71,19.43,19.44Z"/>
  <path class="cls-8" d="M253.12,81.48h12.03c-1.1,0-2,.8-2.18,1.88-.68,4.05-2.63,7.68-5.41,10.47-3.51,3.51-8.38,5.7-13.74,5.7h-.51c-3.66,0-6.62,2.96-6.62,6.62v11.71c0,6.68-5.46,12.49-12.13,12.5-2.23,0-4.32-.59-6.12-1.65,3.7-2.18,6.22-6.32,6.22-10.85v-11.71c0-3.66,2.96-6.62,6.62-6.62h.51c5.36,0,10.23-2.18,13.74-5.7,2.78-2.78,4.73-6.42,5.41-10.47,.18-1.08,1.08-1.88,2.18-1.88Z"/>
  <path class="cls-8" d="M301.95,62.05c0,5.37-2.17,10.23-5.7,13.74-3.51,3.51-8.36,5.7-13.74,5.7h-12.03c5.38,0,10.23-2.18,13.74-5.7,3.52-3.51,5.7-8.37,5.7-13.74,0-10.73-8.7-19.44-19.44-19.44h12.03c10.74,0,19.44,8.7,19.44,19.44Z"/>
  <path class="cls-4" d="M146.14,109.39c0,5.36-2.18,10.22-5.69,13.74s-8.38,5.69-13.74,5.69h-.51c-3.66,0-6.63,2.97-6.63,6.63v11.75c0,6.43-4.86,11.98-11.27,12.44-3.7,.26-7.08-1.14-9.47-3.53-2.2-2.2-3.56-5.24-3.56-8.59v-12.07c0-3.69-3.01-6.61-6.7-6.63-10.25-.04-18.96-8.05-19.8-18.17-.06-.76-.64-1.39-1.4-1.51-10.61-1.61-18.61-11.23-17.63-22.5,.88-10.18,9.24-18.34,19.44-18.99,12.16-.78,22.26,8.86,22.26,20.85h0c0,.81,.65,1.46,1.44,1.46h33.81c10.73,0,19.43,8.7,19.43,19.43Z"/>
  <path class="cls-8" d="M92.89,89.96h-12.24c-.8,0-1.44-.64-1.44-1.44h0c0-9.41-6.22-17.37-14.76-19.99,1.52-.47,3.11-.77,4.74-.88,12.15-.77,22.26,8.86,22.26,20.85h0c0,.81,.64,1.45,1.44,1.45Z"/>
  <path class="cls-8" d="M146.13,109.39c0,5.36-2.17,10.23-5.69,13.74-3.52,3.51-8.38,5.7-13.74,5.7h-.51c-3.66,0-6.63,2.96-6.63,6.62v11.75c0,6.43-4.85,11.99-11.26,12.44-2.58,.18-5-.45-7.04-1.65,3.65-2.18,6.06-6.27,6.06-10.79v-11.75c0-3.66,2.97-6.62,6.63-6.62h.51c5.36,0,10.22-2.18,13.74-5.7,3.51-3.51,5.69-8.38,5.69-13.74,0-10.74-8.7-19.44-19.43-19.44h12.24c10.72,0,19.43,8.7,19.43,19.44Z"/>
  <path class="cls-6" d="M137.89,275.56h-60.93l2.69-40.11h55.53l2.7,40.11Z"/>
  <path class="cls-9" d="M137.89,275.56h-22.43l-2.7-40.11h22.43l2.7,40.11Z"/>
  <path class="cls-6" d="M254.62,243.03h-60.18l2.56-38.09h55.07l2.56,38.09Z"/>
  <path class="cls-9" d="M254.62,243.03h-22.34l-2.55-38.09h22.34l2.55,38.09Z"/>
  <path class="cls-3" d="M292.11,302.55l9.43,86.06-9.43,80.78H52.05c-5.29,0-9.58-4.29-9.58-9.58v-77.82c0-4.63,3.31-8.59,7.86-9.42l50.39-9.18c3.88-.71,6.7-4.08,6.7-8.03v-10.63c0-3.91,2.78-7.28,6.62-8.01l178.06-34.16Z"/>
  <path class="cls-7" d="M292.11,302.56l9.43,86.06-9.43,80.78h-23.63v-162.3l23.63-4.54Z"/>
  <path class="cls-6" d="M162.76,380.04h-10.89c-3.17,0-5.74-2.57-5.74-5.74v-10.89c0-3.17,2.57-5.74,5.74-5.74h10.89c3.17,0,5.74,2.57,5.74,5.74v10.89c0,3.17-2.57,5.74-5.74,5.74Z"/>
  <path class="cls-6" d="M208.76,380.04h-10.89c-3.17,0-5.74-2.57-5.74-5.74v-10.89c0-3.17,2.57-5.74,5.74-5.74h10.89c3.17,0,5.74,2.57,5.74,5.74v10.89c0,3.17-2.57,5.74-5.74,5.74Z"/>
  <path class="cls-6" d="M254.76,380.04h-10.89c-3.17,0-5.74-2.57-5.74-5.74v-10.89c0-3.17,2.57-5.74,5.74-5.74h10.89c3.17,0,5.74,2.57,5.74,5.74v10.89c0,3.17-2.57,5.74-5.74,5.74Z"/>
  <path class="cls-6" d="M260.5,414.53H81.14c-3.56,0-6.44-2.88-6.44-6.44s2.89-6.44,6.44-6.44h179.36c3.56,0,6.44,2.88,6.44,6.44s-2.88,6.44-6.44,6.44Z"/>
  <path class="cls-6" d="M469.53,223.98l-32.09,3.19-32.09-3.19,12.73-40.27c1.18-3.75,4.66-6.29,8.59-6.29h33.87c4.97,0,9,4.03,9,9v37.56Z"/>
  <path class="cls-9" d="M469.53,186.42v37.56l-10.96,3.2-10.96-3.2v-46.56h12.91c4.97,0,9,4.03,9,9Z"/>
  <path class="cls-2" d="M459.95,469.39h-54.61l-24.52-6.31-24.52,6.31h-64.19V233.56c0-5.29,4.29-9.58,9.58-9.58h167.84v235.83c0,5.29-4.29,9.58-9.58,9.58h0Z"/>
  <path class="cls-1" d="M469.53,223.98v235.83c0,5.29-4.29,9.58-9.58,9.58h-12.33V223.98h21.91Z"/>
  <path class="cls-5" d="M405.34,469.39h-49.04v-52.36c0-3.35,2.72-6.07,6.07-6.07h36.9c3.35,0,6.07,2.72,6.07,6.07v52.36Z"/>
  <g>
    <path class="cls-6" d="M428.36,284.23h-95.09c-3.17,0-5.74-2.57-5.74-5.74v-12.82c0-3.17,2.57-5.74,5.74-5.74h95.09c3.17,0,5.74,2.57,5.74,5.74v12.82c0,3.17-2.57,5.74-5.74,5.74Z"/>
    <path class="cls-6" d="M362.17,334.13h-28.89c-3.17,0-5.74-2.57-5.74-5.74v-12.82c0-3.17,2.57-5.74,5.74-5.74h28.89c3.17,0,5.74,2.57,5.74,5.74v12.82c0,3.17-2.57,5.74-5.74,5.74Z"/>
    <path class="cls-6" d="M428.36,334.13h-28.89c-3.17,0-5.74-2.57-5.74-5.74v-12.82c0-3.17,2.57-5.74,5.74-5.74h28.89c3.17,0,5.74,2.57,5.74,5.74v12.82c0,3.17-2.57,5.74-5.74,5.74Z"/>
    <path class="cls-6" d="M362.17,384.03h-28.89c-3.17,0-5.74-2.57-5.74-5.74v-12.82c0-3.17,2.57-5.74,5.74-5.74h28.89c3.17,0,5.74,2.57,5.74,5.74v12.82c0,3.17-2.57,5.74-5.74,5.74Z"/>
    <path class="cls-6" d="M428.36,384.03h-28.89c-3.17,0-5.74-2.57-5.74-5.74v-12.82c0-3.17,2.57-5.74,5.74-5.74h28.89c3.17,0,5.74,2.57,5.74,5.74v12.82c0,3.17-2.57,5.74-5.74,5.74Z"/>
  </g>
</svg>