<?xml version="1.0" encoding="UTF-8"?>
<svg id="katman_1" data-name="katman 1" xmlns="http://www.w3.org/2000/svg" viewBox="0 0 77.58 77.58">
  <defs>
    <style>
      .cls-1 {
        fill: #fff;
      }

      .cls-2 {
        fill: #2b2a28;
      }
    </style>
  </defs>
  <circle class="cls-2" cx="38.79" cy="38.79" r="35.16"/>
  <path class="cls-1" d="M52.24,33.75c-.13-.51-.32-.52-.56-.05-2.29,4.59-4.72,9.31-7.28,14.15-.85,1.62-1.76,2.73-2.72,3.32-2.46,1.52-6.44,.85-7.95-1.98-2.69-5.03-5.39-10.18-8.12-15.46-.25-.49-.45-.47-.58,.06l-4.43,17.12c-.09,.35-.32,.53-.68,.53l-7.92,.04c-.28,0-.51-.22-.51-.5,0-.05,0-.1,.02-.15,2.45-8.22,4.96-16.78,7.52-25.69,1.42-4.92,7.51-5.73,10.08-1.27,3.33,5.79,6.5,11.52,9.5,17.19,.07,.14,.24,.19,.38,.12,.05-.03,.1-.07,.12-.12,3.17-6.04,6.39-11.85,9.65-17.42,2.53-4.31,8.59-3.16,9.86,1.36,2.52,8.97,5.01,17.67,7.47,26.08,.04,.13-.04,.27-.17,.31-.02,0-.05,0-.07,0l-8.6,.03c-.17,0-.32-.11-.37-.28l-4.64-17.4Z"/>
</svg>