<?xml version="1.0" encoding="UTF-8"?>
<svg id="Layer_1" data-name="Layer 1" xmlns="http://www.w3.org/2000/svg" viewBox="0 0 512 512">
  <defs>
    <style>
      .cls-1 {
        fill: #748bfd;
      }

      .cls-2 {
        fill: #fff;
      }

      .cls-3 {
        fill: #cad0dd;
      }

      .cls-4 {
        fill: #3f434f;
      }

      .cls-5 {
        fill: #4c7891;
      }

      .cls-6 {
        fill: #bac1ce;
      }

      .cls-7 {
        fill: #f34858;
      }

      .cls-8 {
        fill: #f9bb4a;
      }

      .cls-9 {
        isolation: isolate;
      }

      .cls-10 {
        fill: #5b5e71;
      }

      .cls-11 {
        fill: #416e84;
      }

      .cls-12 {
        fill: #d4dae8;
      }

      .cls-13 {
        fill: #4562ef;
      }

      .cls-14 {
        fill: #f9607f;
      }

      .cls-15 {
        fill: #efac41;
      }

      .cls-16 {
        fill: #fed57a;
      }

      .cls-17 {
        fill: #9ad898;
      }

      .cls-18 {
        fill: #474b59;
      }

      .cls-19 {
        fill: #e4e8f4;
      }

      .cls-20 {
        fill: #37617b;
      }
    </style>
  </defs>
  <g>
    <path class="cls-16" d="M481.86,324.07l-4.21,5.4-8.97,11.63-1.37,1.83-7.69-14.93,.82-.18h.09l14.37-2.47v-.09l6.96-1.19Z"/>
    <g>
      <path class="cls-7" d="M487.73,285.78l-.07,7.99c0,1.38-.85,2.69-2.69,3.74l-166.76,96.97c-3.6,2.1-9.44,2.1-13.1,0l-122.86-70.96c-1.83-1.05-2.69-2.43-2.69-3.8v-7.99c0,1.38,.92,2.75,2.75,3.8l122.79,70.9c3.67,2.1,9.5,2.1,13.1,0l166.82-96.91c1.77-1.05,2.69-2.42,2.69-3.73Z"/>
      <path class="cls-14" d="M484.98,281.94c3.64,2.1,3.66,5.48,.04,7.58l-166.79,96.93c-3.62,2.1-9.45,2.1-13.09,0l-122.83-70.91c-3.64-2.1-3.66-5.48-.04-7.58l166.79-96.93c3.62-2.1,9.45-2.1,13.09,0l122.83,70.91Z"/>
      <g class="cls-9">
        <path class="cls-11" d="M439.76,238.68l-.07,3.74c0-1.51-.92-2.95-2.88-4.06-3.73-2.16-9.63-2.23-13.5-.33l-.59,.33c-1.38,.79-2.29,1.77-2.69,2.82-.2,.46-.33,.92-.33,1.38v-3.74c0-.46,.13-.92,.33-1.38,.46-1.05,1.31-2.03,2.69-2.82l.59-.33c3.87-1.9,9.76-1.83,13.5,.33,1.97,1.11,2.95,2.55,2.95,4.06Z"/>
        <path class="cls-20" d="M447.67,240.84v3.74c-.02,2.52-1.35,5.04-4,7.2v-3.74c2.66-2.16,3.99-4.68,4-7.2Z"/>
        <path class="cls-8" d="M444.41,266.28v3.74s-62.34-35.99-62.34-35.99v-3.74s62.34,35.99,62.34,35.99Z"/>
        <path class="cls-20" d="M449.02,258.99v3.74c-.02,2.94-1.51,5.48-4.62,7.29v-3.74c3.13-1.81,4.62-4.35,4.62-7.29Z"/>
        <path class="cls-5" d="M443.68,248.04c6.63,7.29,7.34,14.4,.73,18.24l-62.33-35.99c6.65-3.86,19-3.43,31.57,.41,8.4-3.53,20.04-3.12,27.65,1.28,7.61,4.4,8.4,11.16,2.38,16.06Zm-11.74-3.74c1.83-.24,3.54-.75,4.91-1.55l.54-.36c3.28-2.25,3.14-5.65-.59-7.8-3.72-2.15-9.6-2.22-13.47-.31l-.62,.31c-1.37,.8-2.24,1.79-2.65,2.85-.86,1.86,.06,3.94,2.57,5.39,2.51,1.45,6.06,1.96,9.31,1.47Z"/>
      </g>
      <g>
        <g class="cls-9">
          <path class="cls-6" d="M476.46,284.76l-.02,2.98-130.18,75.65,.02-2.98,130.18-75.65Z"/>
          <path class="cls-3" d="M346.29,360.41l-.02,2.98-69.47,.05,.02-2.98,69.47-.05Z"/>
          <path class="cls-12" d="M276.81,360.46l-.02,2.98-85.97-49.8,.02-2.82,85.97,49.64Z"/>
          <path class="cls-2" d="M476.46,284.76l-130.18,75.65-69.47,.05-85.97-49.64,164.84-95.79,120.78,69.73Z"/>
        </g>
        <g>
          <path class="cls-12" d="M346.28,360.4l-69.47,.05,34.66-20.14,34.81,20.1Z"/>
          <path class="cls-12" d="M455.16,286.7l-6.07,3.53-102.79-59.35,6.07-3.53,102.79,59.35Z"/>
          <path class="cls-12" d="M426.81,303.18l-6.07,3.53-102.79-59.35,6.07-3.53,102.79,59.35Z"/>
          <path class="cls-12" d="M398.46,319.65l-6.07,3.53-102.79-59.35,6.07-3.53,102.79,59.35Z"/>
          <path class="cls-12" d="M412.64,311.41l-6.07,3.53-102.79-59.35,6.07-3.53,102.79,59.35Z"/>
          <path class="cls-12" d="M370.12,336.12l-6.11,3.55-102.79-59.35,6.11-3.55,102.79,59.35Z"/>
          <path class="cls-12" d="M384.29,327.89l-6.07,3.53-102.79-59.35,6.07-3.53,102.79,59.35Z"/>
          <path class="cls-12" d="M355.95,344.36l-6.11,3.55-102.79-59.35,6.11-3.55,102.79,59.35Z"/>
          <path class="cls-12" d="M440.98,294.94l-6.07,3.53-102.79-59.35,6.07-3.53,102.79,59.35Z"/>
          <path class="cls-17" d="M299.26,333.25l-26.52,15.41-26.73-15.43,26.52-15.41,26.73,15.43Z"/>
          <path class="cls-5" d="M263.65,312.69l-26.52,15.41-26.69-15.41,26.52-15.41,26.69,15.41Z"/>
        </g>
      </g>
    </g>
    <g>
      <path class="cls-16" d="M267.26,247.66l64.55,37.52,64.98-37.51-64.55-37.52-64.98,37.51Z"/>
      <path class="cls-15" d="M267.26,247.66l.2,71.69,64.55,37.52-.2-71.69-64.55-37.52Z"/>
      <path class="cls-8" d="M331.81,285.18l.2,71.69,64.98-37.51-.2-71.69-64.98,37.51Z"/>
      <path class="cls-5" d="M378.41,299l-.08-7.36-27.93,16.12,.08,7.36,27.92-16.12Z"/>
      <path class="cls-10" d="M294.23,232.1l64.58,37.48v21.53l5.57-8.23,5.44,2.29v-21.96l-64.58-37.48-11.01,6.37Z"/>
    </g>
    <path class="cls-1" d="M469.04,339.09c0,1.83-.64,3.21-1.74,3.85l-116.19,67.48c1.1-.64,1.83-1.92,1.83-3.84,0-3.85-2.75-8.51-6.04-10.44-1.28-.73-2.82-.78-3.83-.6l115.72-67.25c1.1-.64,2.66-.55,4.3,.37,3.3,1.92,5.95,6.59,5.95,10.44Z"/>
    <path class="cls-16" d="M368.3,397.6c0,1.83-.64,3.21-1.74,3.85l-15.45,8.97c1.1-.64,1.83-1.92,1.83-3.84,0-3.85-2.75-8.51-6.04-10.44-1.28-.73-2.82-.78-3.83-.6l14.98-8.74c1.1-.64,2.66-.55,4.3,.37,3.3,1.92,5.95,6.59,5.95,10.44Z"/>
    <path class="cls-13" d="M346.91,396.15c3.33,1.92,6.01,6.57,6,10.39-.01,3.83-2.71,5.37-6.04,3.44-3.27-1.89-6.01-6.57-6-10.39,.01-3.83,2.77-5.33,6.04-3.44Z"/>
    <g class="cls-9">
      <path class="cls-18" d="M474.9,325.26l6.96-1.19-4.21,5.4c-1.1-1.1-2.01-2.56-2.75-4.12v-.09Z"/>
    </g>
  </g>
  <g>
    <path class="cls-15" d="M150.74,80.64l.19,66.45,59.41,34.93-.19-66.45-25.57-15.08-7.69-4.48-26.15-15.37Z"/>
    <path class="cls-8" d="M210.07,115.61l.24,66.36,59.77-34.95-.2-66.3v-.1h-.1l-25.93,15.21-5.89,3.48-1.77,.99-26.13,15.31Z"/>
    <path class="cls-16" d="M150.7,80.7l59.4,34.93,26.11-15.3,7.56-4.33,.15-.08,25.96-15.22-59.4-34.93-59.78,34.93Z"/>
    <path class="cls-19" d="M176.79,65.4l59.4,34.93,7.56-4.33,.15-.08-59.56-34.93-.08,.08-7.48,4.33Z"/>
    <path class="cls-12" d="M243.96,111.74l-7.69,4.57-.1-15.83v-.19l1.73-.97,5.96-3.41v.1l.1,15.73Z"/>
    <g>
      <g>
        <path class="cls-4" d="M201.9,158.64l-1.79,3.45,1.11,.65,2.45,1.42-1.77-5.51Z"/>
        <path class="cls-4" d="M201.22,162.73l-.02,6.82,1.34,.78,.02-6.82-1.34-.78Z"/>
        <path class="cls-4" d="M194.57,166.29v1.46s9.23,5.4,9.23,5.4v-1.46s-9.23-5.4-9.23-5.4Z"/>
        <path class="cls-4" d="M177.69,144.9v4.86c-.02,1.53,.86,3.32,2.02,4.22v4.38c-.83-.38-1.44-.35-1.44,.11l3.6,2.1c0-.46-.61-1.21-1.43-1.78v-4.38c.54,.21,1,.16,1.36-.07,.42-.32,.7-.91,.7-1.77v-4.86s-4.82-2.82-4.82-2.82Z"/>
        <path class="cls-4" d="M195.87,159.61l-.02,6.82,1.34,.78,.02-6.82-1.34-.78Z"/>
        <path class="cls-4" d="M196.54,155.5l-1.78,3.45,1.11,.65,2.44,1.41-1.77-5.51Z"/>
      </g>
      <path class="cls-4" d="M187.15,165.35c-.16,0-.34-.05-.51-.15l-12.53-7.32c-.54-.31-.97-1.1-.97-1.73l.04-14.59c0-.37,.14-.66,.39-.8,.25-.14,.55-.12,.85,.06l12.53,7.32c.55,.33,1,1.11,.99,1.75l-.04,14.59c0,.36-.15,.65-.4,.79-.11,.07-.23,.1-.36,.1Zm-13.23-24.16s-.06,0-.09,.02c-.08,.05-.13,.17-.13,.34l-.04,14.59c0,.45,.33,1.05,.71,1.27l12.53,7.32c.14,.08,.26,.09,.35,.06,.08-.05,.13-.17,.13-.33l.04-14.59c0-.45-.35-1.06-.73-1.28l-12.53-7.32c-.09-.05-.17-.08-.23-.08Z"/>
      <path class="cls-4" d="M205.8,176.24c-.16,0-.34-.05-.51-.15l-12.53-7.32c-.55-.32-.98-1.08-.98-1.73l.04-14.6c0-.36,.14-.66,.39-.8,.25-.15,.55-.13,.85,.05l12.53,7.32c.55,.32,1,1.11,.99,1.75l-.04,14.59c0,.35-.14,.64-.38,.79-.11,.07-.24,.1-.37,.1Zm-13.22-24.16s-.07,0-.09,.02c-.08,.05-.13,.17-.13,.34l-.04,14.6c0,.45,.34,1.05,.72,1.27l12.52,7.32c.14,.08,.27,.09,.35,.05,.08-.05,.13-.17,.13-.32l.04-14.59c0-.45-.35-1.06-.73-1.28l-12.53-7.32c-.09-.05-.16-.07-.23-.07Z"/>
      <path class="cls-4" d="M168.5,154.46c-.16,0-.34-.05-.51-.15l-12.53-7.32c-.55-.32-.98-1.08-.98-1.73l.04-14.6c0-.36,.14-.66,.39-.8,.25-.15,.55-.13,.85,.05l12.53,7.32c.55,.32,1,1.11,.99,1.75l-.04,14.59c0,.35-.14,.64-.38,.79-.11,.07-.24,.1-.37,.1Zm-13.22-24.16s-.07,0-.09,.02c-.08,.05-.13,.17-.13,.34l-.04,14.6c0,.45,.34,1.05,.72,1.27l12.52,7.32c.14,.08,.27,.09,.35,.05,.08-.05,.13-.17,.13-.32l.04-14.59c0-.45-.35-1.06-.73-1.28l-12.53-7.32c-.09-.05-.16-.07-.23-.07Z"/>
    </g>
    <path class="cls-4" d="M161.6,135.41v.68c-2.55-1.3-4.6-.02-4.6,2.96l4.59,2.68-.02,5.42c0,.94,.66,2.1,1.47,2.58,.81,.47,1.48,.09,1.48-.85l-.62-.36c0,.54-.39,.77-.86,.49-.47-.28-.86-.96-.86-1.5l.02-5.42,4.59,2.68c0-2.98-2.01-6.63-4.57-8.32v-.68s-.62-.36-.62-.36Z"/>
    <g>
      <path class="cls-2" d="M250.91,140.95c-.63,.36-1.13,1.19-1.13,1.92l.04,10.45c0,.68,.5,.96,1.08,.64l16.32-9.53c.63-.36,1.13-1.23,1.13-1.92l-.05-10.45c0-.73-.5-1-1.08-.64l-16.32,9.53Z"/>
      <path class="cls-2" d="M249.74,127.41l.05,10.49c0,.68,.5,.96,1.08,.59l16.32-9.53c.63-.32,1.13-1.19,1.13-1.92l-.05-10.45c0-.73-.5-1-1.08-.64l-16.32,9.53c-.63,.37-1.13,1.19-1.13,1.92Z"/>
      <path class="cls-10" d="M251.34,146.25v.47s15.46-9.03,15.46-9.03v-.47s-15.46,9.03-15.46,9.03Z"/>
      <path class="cls-10" d="M251.34,144.85v.47s15.46-9.03,15.46-9.03v-.47s-15.46,9.03-15.46,9.03Z"/>
      <path class="cls-10" d="M251.33,142.04v.47s15.46-9.03,15.46-9.03v-.47s-15.46,9.03-15.46,9.03Z"/>
      <path class="cls-10" d="M251.36,151.87v.47s15.46-9.03,15.46-9.03v-.47s-15.46,9.03-15.46,9.03Z"/>
      <path class="cls-10" d="M251.35,150.47v.47s15.46-9.03,15.46-9.03v-.47s-15.46,9.03-15.46,9.03Z"/>
      <path class="cls-10" d="M251.35,149.06v.47s15.46-9.03,15.46-9.03v-.47s-15.46,9.03-15.46,9.03Z"/>
      <path class="cls-10" d="M251.35,147.66v.47s15.46-9.03,15.46-9.03v-.47s-15.46,9.03-15.46,9.03Z"/>
      <path class="cls-10" d="M251.33,143.44v.47s15.46-9.03,15.46-9.03v-.47s-15.46,9.03-15.46,9.03Z"/>
      <path class="cls-10" d="M251.3,132.23v.47s15.46-9.03,15.46-9.03v-.47s-15.46,9.03-15.46,9.03Z"/>
      <path class="cls-10" d="M251.3,130.83v.47s15.46-9.03,15.46-9.03v-.47s-15.46,9.03-15.46,9.03Z"/>
      <path class="cls-10" d="M251.29,128.02v.47s15.46-9.03,15.46-9.03v-.47s-15.46,9.03-15.46,9.03Z"/>
      <path class="cls-10" d="M251.29,126.61v.47s15.46-9.03,15.46-9.03v-.47s-15.46,9.03-15.46,9.03Z"/>
      <path class="cls-10" d="M251.32,136.41v.5s15.46-9.03,15.46-9.03v-.5s-15.46,9.03-15.46,9.03Z"/>
      <path class="cls-10" d="M251.31,135.01v.5s15.46-9.03,15.46-9.03v-.5s-15.46,9.03-15.46,9.03Z"/>
      <path class="cls-10" d="M251.31,133.6v.5s15.46-9.03,15.46-9.03v-.5s-15.46,9.03-15.46,9.03Z"/>
      <path class="cls-10" d="M251.3,129.42v.47s15.46-9.03,15.46-9.03v-.47s-15.46,9.03-15.46,9.03Z"/>
    </g>
  </g>
  <g>
    <path class="cls-15" d="M87.52,117.76l.19,66.45,59.41,34.93-.19-66.45-25.57-15.08-7.69-4.48-26.15-15.37Z"/>
    <path class="cls-8" d="M146.85,152.72l.24,66.36,59.77-34.95-.2-66.3v-.1h-.1l-25.93,15.21-5.89,3.48-1.77,.99-26.13,15.31Z"/>
    <path class="cls-16" d="M87.49,117.82l59.4,34.93,26.11-15.3,7.56-4.33,.15-.08,25.96-15.22-59.4-34.93-59.78,34.93Z"/>
    <path class="cls-19" d="M113.58,102.52l59.4,34.93,7.56-4.33,.15-.08-59.56-34.93-.08,.08-7.48,4.33Z"/>
    <path class="cls-12" d="M180.74,148.86l-7.69,4.57-.1-15.83v-.19l1.73-.97,5.96-3.41v.1l.1,15.73Z"/>
    <g>
      <g>
        <path class="cls-4" d="M138.69,195.75l-1.79,3.45,1.11,.65,2.45,1.42-1.77-5.51Z"/>
        <path class="cls-4" d="M138,199.85l-.02,6.82,1.34,.78,.02-6.82-1.34-.78Z"/>
        <path class="cls-4" d="M131.36,203.4v1.46s9.23,5.4,9.23,5.4v-1.46s-9.23-5.4-9.23-5.4Z"/>
        <path class="cls-4" d="M114.47,182.01v4.86c-.02,1.53,.86,3.32,2.02,4.22v4.38c-.83-.38-1.44-.35-1.44,.11l3.6,2.1c0-.46-.61-1.21-1.43-1.78v-4.38c.54,.21,1,.16,1.36-.07,.42-.32,.7-.91,.7-1.77v-4.86s-4.82-2.82-4.82-2.82Z"/>
        <path class="cls-4" d="M132.65,196.72l-.02,6.82,1.34,.78,.02-6.82-1.34-.78Z"/>
        <path class="cls-4" d="M133.32,192.62l-1.78,3.45,1.11,.65,2.44,1.41-1.77-5.51Z"/>
      </g>
      <path class="cls-4" d="M123.93,202.46c-.16,0-.34-.05-.51-.15l-12.53-7.32c-.54-.31-.97-1.1-.97-1.73l.04-14.59c0-.37,.14-.66,.39-.8,.25-.14,.55-.12,.85,.06l12.53,7.32c.55,.33,1,1.11,.99,1.75l-.04,14.59c0,.36-.15,.65-.4,.79-.11,.07-.23,.1-.36,.1Zm-13.23-24.16s-.06,0-.09,.02c-.08,.05-.13,.17-.13,.34l-.04,14.59c0,.45,.33,1.05,.71,1.27l12.53,7.32c.14,.08,.26,.09,.35,.06,.08-.05,.13-.17,.13-.33l.04-14.59c0-.45-.35-1.06-.73-1.28l-12.53-7.32c-.09-.05-.17-.08-.23-.08Z"/>
      <path class="cls-4" d="M142.58,213.36c-.16,0-.34-.05-.51-.15l-12.53-7.32c-.55-.32-.98-1.08-.98-1.73l.04-14.6c0-.36,.14-.66,.39-.8,.25-.15,.55-.13,.85,.05l12.53,7.32c.55,.32,1,1.11,.99,1.75l-.04,14.59c0,.35-.14,.64-.38,.79-.11,.07-.24,.1-.37,.1Zm-13.22-24.16s-.07,0-.09,.02c-.08,.05-.13,.17-.13,.34l-.04,14.6c0,.45,.34,1.05,.72,1.27l12.52,7.32c.14,.08,.27,.09,.35,.05,.08-.05,.13-.17,.13-.32l.04-14.59c0-.45-.35-1.06-.73-1.28l-12.53-7.32c-.09-.05-.16-.07-.23-.07Z"/>
      <path class="cls-4" d="M105.29,191.57c-.16,0-.34-.05-.51-.15l-12.53-7.32c-.55-.32-.98-1.08-.98-1.73l.04-14.6c0-.36,.14-.66,.39-.8,.25-.15,.55-.13,.85,.05l12.53,7.32c.55,.32,1,1.11,.99,1.75l-.04,14.59c0,.35-.14,.64-.38,.79-.11,.07-.24,.1-.37,.1Zm-13.22-24.16s-.07,0-.09,.02c-.08,.05-.13,.17-.13,.34l-.04,14.6c0,.45,.34,1.05,.72,1.27l12.52,7.32c.14,.08,.27,.09,.35,.05,.08-.05,.13-.17,.13-.32l.04-14.59c0-.45-.35-1.06-.73-1.28l-12.53-7.32c-.09-.05-.16-.07-.23-.07Z"/>
    </g>
    <path class="cls-4" d="M98.39,172.53v.68c-2.55-1.3-4.6-.02-4.61,2.96l4.59,2.68-.02,5.42c0,.94,.66,2.1,1.47,2.58,.81,.47,1.48,.09,1.48-.85l-.62-.36c0,.54-.39,.77-.86,.49-.47-.28-.86-.96-.86-1.5l.02-5.42,4.59,2.68c0-2.98-2.01-6.63-4.57-8.32v-.68s-.62-.36-.62-.36Z"/>
    <g>
      <path class="cls-2" d="M187.7,178.07c-.63,.36-1.13,1.19-1.13,1.92l.04,10.45c0,.68,.5,.96,1.08,.64l16.32-9.53c.63-.36,1.13-1.23,1.13-1.92l-.05-10.45c0-.73-.5-1-1.08-.64l-16.32,9.53Z"/>
      <path class="cls-2" d="M186.52,164.52l.05,10.49c0,.68,.5,.96,1.08,.59l16.32-9.53c.63-.32,1.13-1.19,1.13-1.92l-.05-10.45c0-.73-.5-1-1.08-.64l-16.32,9.53c-.63,.37-1.13,1.19-1.13,1.92Z"/>
      <path class="cls-10" d="M188.13,183.37v.47s15.46-9.03,15.46-9.03v-.47s-15.46,9.03-15.46,9.03Z"/>
      <path class="cls-10" d="M188.12,181.96v.47s15.46-9.03,15.46-9.03v-.47s-15.46,9.03-15.46,9.03Z"/>
      <path class="cls-10" d="M188.11,179.15v.47s15.46-9.03,15.46-9.03v-.47s-15.46,9.03-15.46,9.03Z"/>
      <path class="cls-10" d="M188.14,188.99v.47s15.46-9.03,15.46-9.03v-.47s-15.46,9.03-15.46,9.03Z"/>
      <path class="cls-10" d="M188.14,187.58v.47s15.46-9.03,15.46-9.03v-.47s-15.46,9.03-15.46,9.03Z"/>
      <path class="cls-10" d="M188.13,186.18v.47s15.46-9.03,15.46-9.03v-.47s-15.46,9.03-15.46,9.03Z"/>
      <path class="cls-10" d="M188.13,184.77v.47s15.46-9.03,15.46-9.03v-.47s-15.46,9.03-15.46,9.03Z"/>
      <path class="cls-10" d="M188.12,180.56v.47s15.46-9.03,15.46-9.03v-.47s-15.46,9.03-15.46,9.03Z"/>
      <path class="cls-10" d="M188.09,169.35v.47s15.46-9.03,15.46-9.03v-.47s-15.46,9.03-15.46,9.03Z"/>
      <path class="cls-10" d="M188.08,167.94v.47s15.46-9.03,15.46-9.03v-.47s-15.46,9.03-15.46,9.03Z"/>
      <path class="cls-10" d="M188.07,165.13v.47s15.46-9.03,15.46-9.03v-.47s-15.46,9.03-15.46,9.03Z"/>
      <path class="cls-10" d="M188.07,163.72v.47s15.46-9.03,15.46-9.03v-.47s-15.46,9.03-15.46,9.03Z"/>
      <path class="cls-10" d="M188.1,173.53v.5s15.46-9.03,15.46-9.03v-.5s-15.46,9.03-15.46,9.03Z"/>
      <path class="cls-10" d="M188.09,172.12v.5s15.46-9.03,15.46-9.03v-.5s-15.46,9.03-15.46,9.03Z"/>
      <path class="cls-10" d="M188.09,170.72v.5s15.46-9.03,15.46-9.03v-.5s-15.46,9.03-15.46,9.03Z"/>
      <path class="cls-10" d="M188.08,166.53v.47s15.46-9.03,15.46-9.03v-.47s-15.46,9.03-15.46,9.03Z"/>
    </g>
  </g>
  <g>
    <path class="cls-15" d="M24.31,154.87l.19,66.45,59.41,34.93-.19-66.45-25.57-15.08-7.69-4.48-26.15-15.37Z"/>
    <path class="cls-8" d="M83.64,189.84l.24,66.36,59.77-34.95-.2-66.3v-.1h-.1l-25.93,15.21-5.89,3.48-1.77,.99-26.13,15.31Z"/>
    <path class="cls-16" d="M24.27,154.93l59.4,34.93,26.11-15.3,7.56-4.33,.15-.08,25.96-15.22-59.4-34.93-59.78,34.93Z"/>
    <path class="cls-19" d="M50.36,139.63l59.4,34.93,7.56-4.33,.15-.08-59.56-34.93-.08,.08-7.48,4.33Z"/>
    <path class="cls-12" d="M117.53,185.97l-7.69,4.57-.1-15.83v-.19l1.73-.97,5.96-3.41v.1l.1,15.73Z"/>
    <g>
      <g>
        <path class="cls-4" d="M75.47,232.87l-1.79,3.45,1.11,.65,2.45,1.42-1.77-5.51Z"/>
        <path class="cls-4" d="M74.79,236.96l-.02,6.82,1.34,.78,.02-6.82-1.34-.78Z"/>
        <path class="cls-4" d="M68.14,240.52v1.46s9.23,5.4,9.23,5.4v-1.46s-9.23-5.4-9.23-5.4Z"/>
        <path class="cls-4" d="M51.26,219.13v4.86c-.02,1.53,.86,3.32,2.02,4.22v4.38c-.83-.38-1.44-.35-1.44,.11l3.6,2.1c0-.46-.61-1.21-1.43-1.78v-4.38c.54,.21,1,.16,1.36-.07,.42-.32,.7-.91,.7-1.77v-4.86s-4.82-2.82-4.82-2.82Z"/>
        <path class="cls-4" d="M69.43,233.83l-.02,6.82,1.34,.78,.02-6.82-1.34-.78Z"/>
        <path class="cls-4" d="M70.11,229.73l-1.78,3.45,1.11,.65,2.44,1.41-1.77-5.51Z"/>
      </g>
      <path class="cls-4" d="M60.72,239.58c-.16,0-.34-.05-.51-.15l-12.53-7.32c-.54-.31-.97-1.1-.97-1.73l.04-14.59c0-.37,.14-.66,.39-.8,.25-.14,.55-.12,.85,.06l12.53,7.32c.55,.33,1,1.11,.99,1.75l-.04,14.59c0,.36-.15,.65-.4,.79-.11,.07-.23,.1-.36,.1Zm-13.23-24.16s-.06,0-.09,.02c-.08,.05-.13,.17-.13,.34l-.04,14.59c0,.45,.33,1.05,.71,1.27l12.53,7.32c.14,.08,.26,.09,.35,.06,.08-.05,.13-.17,.13-.33l.04-14.59c0-.45-.35-1.06-.73-1.28l-12.53-7.32c-.09-.05-.17-.08-.23-.08Z"/>
      <path class="cls-4" d="M79.37,250.47c-.16,0-.34-.05-.51-.15l-12.53-7.32c-.55-.32-.98-1.08-.98-1.73l.04-14.6c0-.36,.14-.66,.39-.8,.25-.15,.55-.13,.85,.05l12.53,7.32c.55,.32,1,1.11,.99,1.75l-.04,14.59c0,.35-.14,.64-.38,.79-.11,.07-.24,.1-.37,.1Zm-13.22-24.16s-.07,0-.09,.02c-.08,.05-.13,.17-.13,.34l-.04,14.6c0,.45,.34,1.05,.72,1.27l12.52,7.32c.14,.08,.27,.09,.35,.05,.08-.05,.13-.17,.13-.32l.04-14.59c0-.45-.35-1.06-.73-1.28l-12.53-7.32c-.09-.05-.16-.07-.23-.07Z"/>
      <path class="cls-4" d="M42.07,228.69c-.16,0-.34-.05-.51-.15l-12.53-7.32c-.55-.32-.98-1.08-.98-1.73l.04-14.6c0-.36,.14-.66,.39-.8,.25-.15,.55-.13,.85,.05l12.53,7.32c.55,.32,1,1.11,.99,1.75l-.04,14.59c0,.35-.14,.64-.38,.79-.11,.07-.24,.1-.37,.1Zm-13.22-24.16s-.07,0-.09,.02c-.08,.05-.13,.17-.13,.34l-.04,14.6c0,.45,.34,1.05,.72,1.27l12.52,7.32c.14,.08,.27,.09,.35,.05,.08-.05,.13-.17,.13-.32l.04-14.59c0-.45-.35-1.06-.73-1.28l-12.53-7.32c-.09-.05-.16-.07-.23-.07Z"/>
    </g>
    <path class="cls-4" d="M35.17,209.64v.68c-2.55-1.3-4.6-.02-4.61,2.96l4.59,2.68-.02,5.42c0,.94,.66,2.1,1.47,2.58,.81,.47,1.48,.09,1.48-.85l-.62-.36c0,.54-.39,.77-.86,.49-.47-.28-.86-.96-.86-1.5l.02-5.42,4.59,2.68c0-2.98-2.01-6.63-4.57-8.32v-.68s-.62-.36-.62-.36Z"/>
    <g>
      <path class="cls-2" d="M124.48,215.18c-.63,.36-1.13,1.19-1.13,1.92l.04,10.45c0,.68,.5,.96,1.08,.64l16.32-9.53c.63-.36,1.13-1.23,1.13-1.92l-.05-10.45c0-.73-.5-1-1.08-.64l-16.32,9.53Z"/>
      <path class="cls-2" d="M123.31,201.63l.05,10.49c0,.68,.5,.96,1.08,.59l16.32-9.53c.63-.32,1.13-1.19,1.13-1.92l-.05-10.45c0-.73-.5-1-1.08-.64l-16.32,9.53c-.63,.37-1.13,1.19-1.13,1.92Z"/>
      <path class="cls-10" d="M124.91,220.48v.47s15.46-9.03,15.46-9.03v-.47s-15.46,9.03-15.46,9.03Z"/>
      <path class="cls-10" d="M124.91,219.08v.47s15.46-9.03,15.46-9.03v-.47s-15.46,9.03-15.46,9.03Z"/>
      <path class="cls-10" d="M124.9,216.27v.47s15.46-9.03,15.46-9.03v-.47s-15.46,9.03-15.46,9.03Z"/>
      <path class="cls-10" d="M124.92,226.1v.47s15.46-9.03,15.46-9.03v-.47s-15.46,9.03-15.46,9.03Z"/>
      <path class="cls-10" d="M124.92,224.7v.47s15.46-9.03,15.46-9.03v-.47s-15.46,9.03-15.46,9.03Z"/>
      <path class="cls-10" d="M124.92,223.29v.47s15.46-9.03,15.46-9.03v-.47s-15.46,9.03-15.46,9.03Z"/>
      <path class="cls-10" d="M124.91,221.89v.47s15.46-9.03,15.46-9.03v-.47s-15.46,9.03-15.46,9.03Z"/>
      <path class="cls-10" d="M124.9,217.67v.47s15.46-9.03,15.46-9.03v-.47s-15.46,9.03-15.46,9.03Z"/>
      <path class="cls-10" d="M124.87,206.46v.47s15.46-9.03,15.46-9.03v-.47s-15.46,9.03-15.46,9.03Z"/>
      <path class="cls-10" d="M124.87,205.05v.47s15.46-9.03,15.46-9.03v-.47s-15.46,9.03-15.46,9.03Z"/>
      <path class="cls-10" d="M124.86,202.24v.47s15.46-9.03,15.46-9.03v-.47s-15.46,9.03-15.46,9.03Z"/>
      <path class="cls-10" d="M124.85,200.84v.47s15.46-9.03,15.46-9.03v-.47s-15.46,9.03-15.46,9.03Z"/>
      <path class="cls-10" d="M124.88,210.64v.5s15.46-9.03,15.46-9.03v-.5s-15.46,9.03-15.46,9.03Z"/>
      <path class="cls-10" d="M124.88,209.24v.5s15.46-9.03,15.46-9.03v-.5s-15.46,9.03-15.46,9.03Z"/>
      <path class="cls-10" d="M124.87,207.83v.5s15.46-9.03,15.46-9.03v-.5s-15.46,9.03-15.46,9.03Z"/>
      <path class="cls-10" d="M124.86,203.65v.47s15.46-9.03,15.46-9.03v-.47s-15.46,9.03-15.46,9.03Z"/>
    </g>
  </g>
  <g>
    <path class="cls-15" d="M161.02,161.96l.19,66.45,59.41,34.93-.19-66.45-25.57-15.08-7.69-4.48-26.15-15.37Z"/>
    <path class="cls-8" d="M220.35,196.92l.24,66.36,59.77-34.95-.2-66.3v-.1h-.1l-25.93,15.21-5.89,3.48-1.77,.99-26.13,15.31Z"/>
    <path class="cls-16" d="M160.99,162.02l59.4,34.93,26.11-15.3,7.56-4.33,.15-.08,25.96-15.22-59.4-34.93-59.78,34.93Z"/>
    <path class="cls-19" d="M187.08,146.72l59.4,34.93,7.56-4.33,.15-.08-59.56-34.93-.08,.08-7.48,4.33Z"/>
    <path class="cls-12" d="M254.24,193.06l-7.69,4.57-.1-15.83v-.19l1.73-.97,5.96-3.41v.1l.1,15.73Z"/>
    <g>
      <g>
        <path class="cls-4" d="M212.19,239.95l-1.79,3.45,1.11,.65,2.45,1.42-1.77-5.51Z"/>
        <path class="cls-4" d="M211.5,244.05l-.02,6.82,1.34,.78,.02-6.82-1.34-.78Z"/>
        <path class="cls-4" d="M204.86,247.61v1.46s9.23,5.4,9.23,5.4v-1.46s-9.23-5.4-9.23-5.4Z"/>
        <path class="cls-4" d="M187.97,226.22v4.86c-.02,1.53,.86,3.32,2.02,4.22v4.38c-.83-.38-1.44-.35-1.44,.11l3.6,2.1c0-.46-.61-1.21-1.43-1.78v-4.38c.54,.21,1,.16,1.36-.07,.42-.32,.7-.91,.7-1.77v-4.86s-4.82-2.82-4.82-2.82Z"/>
        <path class="cls-4" d="M206.15,240.92l-.02,6.82,1.34,.78,.02-6.82-1.34-.78Z"/>
        <path class="cls-4" d="M206.82,236.82l-1.78,3.45,1.11,.65,2.44,1.41-1.77-5.51Z"/>
      </g>
      <path class="cls-4" d="M197.43,246.67c-.16,0-.34-.05-.51-.15l-12.53-7.32c-.54-.31-.97-1.1-.97-1.73l.04-14.59c0-.37,.14-.66,.39-.8,.25-.14,.55-.12,.85,.06l12.53,7.32c.55,.33,1,1.11,.99,1.75l-.04,14.59c0,.36-.15,.65-.4,.79-.11,.07-.23,.1-.36,.1Zm-13.23-24.16s-.06,0-.09,.02c-.08,.05-.13,.17-.13,.34l-.04,14.59c0,.45,.33,1.05,.71,1.27l12.53,7.32c.14,.08,.26,.09,.35,.06,.08-.05,.13-.17,.13-.33l.04-14.59c0-.45-.35-1.06-.73-1.28l-12.53-7.32c-.09-.05-.17-.08-.23-.08Z"/>
      <path class="cls-4" d="M216.08,257.56c-.16,0-.34-.05-.51-.15l-12.53-7.32c-.55-.32-.98-1.08-.98-1.73l.04-14.6c0-.36,.14-.66,.39-.8,.25-.15,.55-.13,.85,.05l12.53,7.32c.55,.32,1,1.11,.99,1.75l-.04,14.59c0,.35-.14,.64-.38,.79-.11,.07-.24,.1-.37,.1Zm-13.22-24.16s-.07,0-.09,.02c-.08,.05-.13,.17-.13,.34l-.04,14.6c0,.45,.34,1.05,.72,1.27l12.52,7.32c.14,.08,.27,.09,.35,.05,.08-.05,.13-.17,.13-.32l.04-14.59c0-.45-.35-1.06-.73-1.28l-12.53-7.32c-.09-.05-.16-.07-.23-.07Z"/>
      <path class="cls-4" d="M178.79,235.78c-.16,0-.34-.05-.51-.15l-12.53-7.32c-.55-.32-.98-1.08-.98-1.73l.04-14.6c0-.36,.14-.66,.39-.8,.25-.15,.55-.13,.85,.05l12.53,7.32c.55,.32,1,1.11,.99,1.75l-.04,14.59c0,.35-.14,.64-.38,.79-.11,.07-.24,.1-.37,.1Zm-13.22-24.16s-.07,0-.09,.02c-.08,.05-.13,.17-.13,.34l-.04,14.6c0,.45,.34,1.05,.72,1.27l12.52,7.32c.14,.08,.27,.09,.35,.05,.08-.05,.13-.17,.13-.32l.04-14.59c0-.45-.35-1.06-.73-1.28l-12.53-7.32c-.09-.05-.16-.07-.23-.07Z"/>
    </g>
    <path class="cls-4" d="M171.89,216.73v.68c-2.55-1.3-4.6-.02-4.61,2.96l4.59,2.68-.02,5.42c0,.94,.66,2.1,1.47,2.58,.81,.47,1.48,.09,1.48-.85l-.62-.36c0,.54-.39,.77-.86,.49-.47-.28-.86-.96-.86-1.5l.02-5.42,4.59,2.68c0-2.98-2.01-6.63-4.57-8.32v-.68s-.62-.36-.62-.36Z"/>
    <g>
      <path class="cls-2" d="M261.2,222.27c-.63,.36-1.13,1.19-1.13,1.92l.04,10.45c0,.68,.5,.96,1.08,.64l16.32-9.53c.63-.36,1.13-1.23,1.13-1.92l-.05-10.45c0-.73-.5-1-1.08-.64l-16.32,9.53Z"/>
      <path class="cls-2" d="M260.02,208.72l.05,10.49c0,.68,.5,.96,1.08,.59l16.32-9.53c.63-.32,1.13-1.19,1.13-1.92l-.05-10.45c0-.73-.5-1-1.08-.64l-16.32,9.53c-.63,.37-1.13,1.19-1.13,1.92Z"/>
      <path class="cls-10" d="M261.63,227.57v.47s15.46-9.03,15.46-9.03v-.47s-15.46,9.03-15.46,9.03Z"/>
      <path class="cls-10" d="M261.62,226.16v.47s15.46-9.03,15.46-9.03v-.47s-15.46,9.03-15.46,9.03Z"/>
      <path class="cls-10" d="M261.61,223.35v.47s15.46-9.03,15.46-9.03v-.47s-15.46,9.03-15.46,9.03Z"/>
      <path class="cls-10" d="M261.64,233.19v.47s15.46-9.03,15.46-9.03v-.47s-15.46,9.03-15.46,9.03Z"/>
      <path class="cls-10" d="M261.64,231.79v.47s15.46-9.03,15.46-9.03v-.47s-15.46,9.03-15.46,9.03Z"/>
      <path class="cls-10" d="M261.63,230.38v.47s15.46-9.03,15.46-9.03v-.47s-15.46,9.03-15.46,9.03Z"/>
      <path class="cls-10" d="M261.63,228.98v.47s15.46-9.03,15.46-9.03v-.47s-15.46,9.03-15.46,9.03Z"/>
      <path class="cls-10" d="M261.62,224.76v.47s15.46-9.03,15.46-9.03v-.47s-15.46,9.03-15.46,9.03Z"/>
      <path class="cls-10" d="M261.59,213.55v.47s15.46-9.03,15.46-9.03v-.47s-15.46,9.03-15.46,9.03Z"/>
      <path class="cls-10" d="M261.58,212.14v.47s15.46-9.03,15.46-9.03v-.47s-15.46,9.03-15.46,9.03Z"/>
      <path class="cls-10" d="M261.57,209.33v.47s15.46-9.03,15.46-9.03v-.47s-15.46,9.03-15.46,9.03Z"/>
      <path class="cls-10" d="M261.57,207.93v.47s15.46-9.03,15.46-9.03v-.47s-15.46,9.03-15.46,9.03Z"/>
      <path class="cls-10" d="M261.6,217.73v.5s15.46-9.03,15.46-9.03v-.5s-15.46,9.03-15.46,9.03Z"/>
      <path class="cls-10" d="M261.59,216.33v.5s15.46-9.03,15.46-9.03v-.5s-15.46,9.03-15.46,9.03Z"/>
      <path class="cls-10" d="M261.59,214.92v.5s15.46-9.03,15.46-9.03v-.5s-15.46,9.03-15.46,9.03Z"/>
      <path class="cls-10" d="M261.58,210.74v.47s15.46-9.03,15.46-9.03v-.47s-15.46,9.03-15.46,9.03Z"/>
    </g>
  </g>
  <g>
    <path class="cls-15" d="M97.81,199.07l.19,66.45,59.41,34.93-.19-66.45-25.57-15.08-7.69-4.48-26.15-15.37Z"/>
    <path class="cls-8" d="M157.14,234.04l.24,66.36,59.77-34.95-.2-66.3v-.1h-.1l-25.93,15.21-5.89,3.48-1.77,.99-26.13,15.31Z"/>
    <path class="cls-16" d="M97.77,199.13l59.4,34.93,26.11-15.3,7.56-4.33,.15-.08,25.96-15.22-59.4-34.93-59.78,34.93Z"/>
    <path class="cls-19" d="M123.86,183.83l59.4,34.93,7.56-4.33,.15-.08-59.56-34.93-.08,.08-7.48,4.33Z"/>
    <path class="cls-12" d="M191.03,230.17l-7.69,4.57-.1-15.83v-.19l1.73-.97,5.96-3.41v.1l.1,15.73Z"/>
    <g>
      <g>
        <g>
          <path class="cls-4" d="M148.97,277.07l-1.79,3.45,1.11,.65,2.45,1.42-1.77-5.51Z"/>
          <path class="cls-4" d="M148.29,281.16l-.02,6.82,1.34,.78,.02-6.82-1.34-.78Z"/>
          <path class="cls-4" d="M141.64,284.72v1.46s9.23,5.4,9.23,5.4v-1.46s-9.23-5.4-9.23-5.4Z"/>
          <path class="cls-4" d="M124.76,263.33v4.86c-.02,1.53,.86,3.32,2.02,4.22v4.38c-.83-.38-1.44-.35-1.44,.11l3.6,2.1c0-.46-.61-1.21-1.43-1.78v-4.38c.54,.21,1,.16,1.36-.07,.42-.32,.7-.91,.7-1.77v-4.86s-4.82-2.82-4.82-2.82Z"/>
          <path class="cls-4" d="M142.93,278.04l-.02,6.82,1.34,.78,.02-6.82-1.34-.78Z"/>
          <path class="cls-4" d="M143.61,273.94l-1.78,3.45,1.11,.65,2.44,1.41-1.77-5.51Z"/>
        </g>
        <path class="cls-4" d="M134.22,283.78c-.16,0-.34-.05-.51-.15l-12.53-7.32c-.54-.31-.97-1.1-.97-1.73l.04-14.59c0-.37,.14-.66,.39-.8,.25-.14,.55-.12,.85,.06l12.53,7.32c.55,.33,1,1.11,.99,1.75l-.04,14.59c0,.36-.15,.65-.4,.79-.11,.07-.23,.1-.36,.1Zm-13.23-24.16s-.06,0-.09,.02c-.08,.05-.13,.17-.13,.34l-.04,14.59c0,.45,.33,1.05,.71,1.27l12.53,7.32c.14,.08,.26,.09,.35,.06,.08-.05,.13-.17,.13-.33l.04-14.59c0-.45-.35-1.06-.73-1.28l-12.53-7.32c-.09-.05-.17-.08-.23-.08Z"/>
        <path class="cls-4" d="M152.87,294.67c-.16,0-.34-.05-.51-.15l-12.53-7.32c-.55-.32-.98-1.08-.98-1.73l.04-14.6c0-.36,.14-.66,.39-.8,.25-.15,.55-.13,.85,.05l12.53,7.32c.55,.32,1,1.11,.99,1.75l-.04,14.59c0,.35-.14,.64-.38,.79-.11,.07-.24,.1-.37,.1Zm-13.22-24.16s-.07,0-.09,.02c-.08,.05-.13,.17-.13,.34l-.04,14.6c0,.45,.34,1.05,.72,1.27l12.52,7.32c.14,.08,.27,.09,.35,.05,.08-.05,.13-.17,.13-.32l.04-14.59c0-.45-.35-1.06-.73-1.28l-12.53-7.32c-.09-.05-.16-.07-.23-.07Z"/>
        <path class="cls-4" d="M115.57,272.89c-.16,0-.34-.05-.51-.15l-12.53-7.32c-.55-.32-.98-1.08-.98-1.73l.04-14.6c0-.36,.14-.66,.39-.8,.25-.15,.55-.13,.85,.05l12.53,7.32c.55,.32,1,1.11,.99,1.75l-.04,14.59c0,.35-.14,.64-.38,.79-.11,.07-.24,.1-.37,.1Zm-13.22-24.16s-.07,0-.09,.02c-.08,.05-.13,.17-.13,.34l-.04,14.6c0,.45,.34,1.05,.72,1.27l12.52,7.32c.14,.08,.27,.09,.35,.05,.08-.05,.13-.17,.13-.32l.04-14.59c0-.45-.35-1.06-.73-1.28l-12.53-7.32c-.09-.05-.16-.07-.23-.07Z"/>
      </g>
      <path class="cls-4" d="M108.67,253.84v.68c-2.55-1.3-4.6-.02-4.61,2.96l4.59,2.68-.02,5.42c0,.94,.66,2.1,1.47,2.58,.81,.47,1.48,.09,1.48-.85l-.62-.36c0,.54-.39,.77-.86,.49s-.86-.96-.86-1.5l.02-5.42,4.59,2.68c0-2.98-2.01-6.63-4.57-8.32v-.68s-.62-.36-.62-.36Z"/>
    </g>
    <g>
      <path class="cls-2" d="M197.98,259.38c-.63,.36-1.13,1.19-1.13,1.92l.04,10.45c0,.68,.5,.96,1.08,.64l16.32-9.53c.63-.36,1.13-1.23,1.13-1.92l-.05-10.45c0-.73-.5-1-1.08-.64l-16.32,9.53Z"/>
      <path class="cls-2" d="M196.81,245.84l.05,10.49c0,.68,.5,.96,1.08,.59l16.32-9.53c.63-.32,1.13-1.19,1.13-1.92l-.05-10.45c0-.73-.5-1-1.08-.64l-16.32,9.53c-.63,.37-1.13,1.19-1.13,1.92Z"/>
      <path class="cls-10" d="M198.41,264.68v.47s15.46-9.03,15.46-9.03v-.47s-15.46,9.03-15.46,9.03Z"/>
      <path class="cls-10" d="M198.41,263.28v.47s15.46-9.03,15.46-9.03v-.47s-15.46,9.03-15.46,9.03Z"/>
      <path class="cls-10" d="M198.4,260.47v.47s15.46-9.03,15.46-9.03v-.47s-15.46,9.03-15.46,9.03Z"/>
      <path class="cls-10" d="M198.42,270.31v.47s15.46-9.03,15.46-9.03v-.47s-15.46,9.03-15.46,9.03Z"/>
      <path class="cls-10" d="M198.42,268.9v.47s15.46-9.03,15.46-9.03v-.47s-15.46,9.03-15.46,9.03Z"/>
      <path class="cls-10" d="M198.42,267.5v.47s15.46-9.03,15.46-9.03v-.47s-15.46,9.03-15.46,9.03Z"/>
      <path class="cls-10" d="M198.41,266.09v.47s15.46-9.03,15.46-9.03v-.47s-15.46,9.03-15.46,9.03Z"/>
      <path class="cls-10" d="M198.4,261.87v.47s15.46-9.03,15.46-9.03v-.47s-15.46,9.03-15.46,9.03Z"/>
      <path class="cls-10" d="M198.37,250.66v.47s15.46-9.03,15.46-9.03v-.47s-15.46,9.03-15.46,9.03Z"/>
      <path class="cls-10" d="M198.37,249.26v.47s15.46-9.03,15.46-9.03v-.47s-15.46,9.03-15.46,9.03Z"/>
      <path class="cls-10" d="M198.36,246.45v.47s15.46-9.03,15.46-9.03v-.47s-15.46,9.03-15.46,9.03Z"/>
      <path class="cls-10" d="M198.35,245.04v.47s15.46-9.03,15.46-9.03v-.47s-15.46,9.03-15.46,9.03Z"/>
      <path class="cls-10" d="M198.38,254.85v.5s15.46-9.03,15.46-9.03v-.5s-15.46,9.03-15.46,9.03Z"/>
      <path class="cls-10" d="M198.38,253.44v.5s15.46-9.03,15.46-9.03v-.5s-15.46,9.03-15.46,9.03Z"/>
      <path class="cls-10" d="M198.37,252.04v.5s15.46-9.03,15.46-9.03v-.5s-15.46,9.03-15.46,9.03Z"/>
      <path class="cls-10" d="M198.36,247.85v.47s15.46-9.03,15.46-9.03v-.47s-15.46,9.03-15.46,9.03Z"/>
    </g>
  </g>
  <g>
    <path class="cls-15" d="M40.76,320.65l.19,66.45,59.41,34.93-.19-66.45-25.57-15.08-7.69-4.48-26.15-15.37Z"/>
    <path class="cls-8" d="M100.09,355.61l.24,66.36,59.77-34.95-.2-66.3v-.1h-.1l-25.93,15.21-5.89,3.48-1.77,.99-26.13,15.31Z"/>
    <path class="cls-16" d="M40.72,320.71l59.4,34.93,26.11-15.3,7.56-4.33,.15-.08,25.96-15.22-59.4-34.93-59.78,34.93Z"/>
    <path class="cls-19" d="M66.81,305.41l59.4,34.93,7.56-4.33,.15-.08-59.56-34.93-.08,.08-7.48,4.33Z"/>
    <path class="cls-12" d="M133.98,351.75l-7.69,4.57-.1-15.83v-.19l1.73-.97,5.96-3.41v.1l.1,15.73Z"/>
    <g>
      <g>
        <path class="cls-4" d="M91.92,398.64l-1.79,3.45,1.11,.65,2.45,1.42-1.77-5.51Z"/>
        <path class="cls-4" d="M91.24,402.74l-.02,6.82,1.34,.78,.02-6.82-1.34-.78Z"/>
        <path class="cls-4" d="M84.59,406.3v1.46s9.23,5.4,9.23,5.4v-1.46s-9.23-5.4-9.23-5.4Z"/>
        <path class="cls-4" d="M67.71,384.91v4.86c-.02,1.53,.86,3.32,2.02,4.22v4.38c-.83-.38-1.44-.35-1.44,.11l3.6,2.1c0-.46-.61-1.21-1.43-1.78v-4.38c.54,.21,1,.16,1.36-.07,.42-.32,.7-.91,.7-1.77v-4.86s-4.82-2.82-4.82-2.82Z"/>
        <path class="cls-4" d="M85.89,399.61l-.02,6.82,1.34,.78,.02-6.82-1.34-.78Z"/>
        <path class="cls-4" d="M86.56,395.51l-1.78,3.45,1.11,.65,2.44,1.41-1.77-5.51Z"/>
      </g>
      <path class="cls-4" d="M77.17,405.36c-.16,0-.34-.05-.51-.15l-12.53-7.32c-.54-.31-.97-1.1-.97-1.73l.04-14.59c0-.37,.14-.66,.39-.8,.25-.14,.55-.12,.85,.06l12.53,7.32c.55,.33,1,1.11,.99,1.75l-.04,14.59c0,.36-.15,.65-.4,.79-.11,.07-.23,.1-.36,.1Zm-13.23-24.16s-.06,0-.09,.02c-.08,.05-.13,.17-.13,.34l-.04,14.59c0,.45,.33,1.05,.71,1.27l12.53,7.32c.14,.08,.26,.09,.35,.06,.08-.05,.13-.17,.13-.33l.04-14.59c0-.45-.35-1.06-.73-1.28l-12.53-7.32c-.09-.05-.17-.08-.23-.08Z"/>
      <path class="cls-4" d="M95.82,416.25c-.16,0-.34-.05-.51-.15l-12.53-7.32c-.55-.32-.98-1.08-.98-1.73l.04-14.6c0-.36,.14-.66,.39-.8,.25-.15,.55-.13,.85,.05l12.53,7.32c.55,.32,1,1.11,.99,1.75l-.04,14.59c0,.35-.14,.64-.38,.79-.11,.07-.24,.1-.37,.1Zm-13.22-24.16s-.07,0-.09,.02c-.08,.05-.13,.17-.13,.34l-.04,14.6c0,.45,.34,1.05,.72,1.27l12.52,7.32c.14,.08,.27,.09,.35,.05,.08-.05,.13-.17,.13-.32l.04-14.59c0-.45-.35-1.06-.73-1.28l-12.53-7.32c-.09-.05-.16-.07-.23-.07Z"/>
      <path class="cls-4" d="M58.52,394.47c-.16,0-.34-.05-.51-.15l-12.53-7.32c-.55-.32-.98-1.08-.98-1.73l.04-14.6c0-.36,.14-.66,.39-.8,.25-.15,.55-.13,.85,.05l12.53,7.32c.55,.32,1,1.11,.99,1.75l-.04,14.59c0,.35-.14,.64-.38,.79-.11,.07-.24,.1-.37,.1Zm-13.22-24.16s-.07,0-.09,.02c-.08,.05-.13,.17-.13,.34l-.04,14.6c0,.45,.34,1.05,.72,1.27l12.52,7.32c.14,.08,.27,.09,.35,.05,.08-.05,.13-.17,.13-.32l.04-14.59c0-.45-.35-1.06-.73-1.28l-12.53-7.32c-.09-.05-.16-.07-.23-.07Z"/>
    </g>
    <path class="cls-4" d="M51.62,375.42v.68c-2.55-1.3-4.6-.02-4.61,2.96l4.59,2.68-.02,5.42c0,.94,.66,2.1,1.47,2.58,.81,.47,1.48,.09,1.48-.85l-.62-.36c0,.54-.39,.77-.86,.49-.47-.28-.86-.96-.86-1.5l.02-5.42,4.59,2.68c0-2.98-2.01-6.63-4.57-8.32v-.68s-.62-.36-.62-.36Z"/>
    <g>
      <path class="cls-2" d="M140.93,380.96c-.63,.36-1.13,1.19-1.13,1.92l.04,10.45c0,.68,.5,.96,1.08,.64l16.32-9.53c.63-.36,1.13-1.23,1.13-1.92l-.05-10.45c0-.73-.5-1-1.08-.64l-16.32,9.53Z"/>
      <path class="cls-2" d="M139.76,367.41l.05,10.49c0,.68,.5,.96,1.08,.59l16.32-9.53c.63-.32,1.13-1.19,1.13-1.92l-.05-10.45c0-.73-.5-1-1.08-.64l-16.32,9.53c-.63,.37-1.13,1.19-1.13,1.92Z"/>
      <path class="cls-10" d="M141.36,386.26v.47s15.46-9.03,15.46-9.03v-.47s-15.46,9.03-15.46,9.03Z"/>
      <path class="cls-10" d="M141.36,384.85v.47s15.46-9.03,15.46-9.03v-.47s-15.46,9.03-15.46,9.03Z"/>
      <path class="cls-10" d="M141.35,382.04v.47s15.46-9.03,15.46-9.03v-.47s-15.46,9.03-15.46,9.03Z"/>
      <path class="cls-10" d="M141.38,391.88v.47s15.46-9.03,15.46-9.03v-.47s-15.46,9.03-15.46,9.03Z"/>
      <path class="cls-10" d="M141.37,390.48v.47s15.46-9.03,15.46-9.03v-.47s-15.46,9.03-15.46,9.03Z"/>
      <path class="cls-10" d="M141.37,389.07v.47s15.46-9.03,15.46-9.03v-.47s-15.46,9.03-15.46,9.03Z"/>
      <path class="cls-10" d="M141.37,387.67v.47s15.46-9.03,15.46-9.03v-.47s-15.46,9.03-15.46,9.03Z"/>
      <path class="cls-10" d="M141.35,383.45v.47s15.46-9.03,15.46-9.03v-.47s-15.46,9.03-15.46,9.03Z"/>
      <path class="cls-10" d="M141.32,372.24v.47s15.46-9.03,15.46-9.03v-.47s-15.46,9.03-15.46,9.03Z"/>
      <path class="cls-10" d="M141.32,370.83v.47s15.46-9.03,15.46-9.03v-.47s-15.46,9.03-15.46,9.03Z"/>
      <path class="cls-10" d="M141.31,368.02v.47s15.46-9.03,15.46-9.03v-.47s-15.46,9.03-15.46,9.03Z"/>
      <path class="cls-10" d="M141.31,366.62v.47s15.46-9.03,15.46-9.03v-.47s-15.46,9.03-15.46,9.03Z"/>
      <path class="cls-10" d="M141.33,376.42v.5s15.46-9.03,15.46-9.03v-.5s-15.46,9.03-15.46,9.03Z"/>
      <path class="cls-10" d="M141.33,375.02v.5s15.46-9.03,15.46-9.03v-.5s-15.46,9.03-15.46,9.03Z"/>
      <path class="cls-10" d="M141.33,373.61v.5s15.46-9.03,15.46-9.03v-.5s-15.46,9.03-15.46,9.03Z"/>
      <path class="cls-10" d="M141.31,369.43v.47s15.46-9.03,15.46-9.03v-.47s-15.46,9.03-15.46,9.03Z"/>
    </g>
  </g>
  <g>
    <path class="cls-15" d="M114.26,364.85l.19,66.45,59.41,34.93-.19-66.45-25.57-15.08-7.69-4.48-26.15-15.37Z"/>
    <path class="cls-8" d="M173.59,399.82l.24,66.36,59.77-34.95-.2-66.3v-.1h-.1l-25.93,15.21-5.89,3.48-1.77,.99-26.13,15.31Z"/>
    <path class="cls-16" d="M114.22,364.91l59.4,34.93,26.11-15.3,7.56-4.33,.15-.08,25.96-15.22-59.4-34.93-59.78,34.93Z"/>
    <path class="cls-19" d="M140.31,349.61l59.4,34.93,7.56-4.33,.15-.08-59.56-34.93-.08,.08-7.48,4.33Z"/>
    <path class="cls-12" d="M207.48,395.95l-7.69,4.57-.1-15.83v-.19l1.73-.97,5.96-3.41v.1l.1,15.73Z"/>
    <g>
      <g>
        <g>
          <path class="cls-4" d="M165.42,442.85l-1.79,3.45,1.11,.65,2.45,1.42-1.77-5.51Z"/>
          <path class="cls-4" d="M164.74,446.94l-.02,6.82,1.34,.78,.02-6.82-1.34-.78Z"/>
          <path class="cls-4" d="M158.09,450.5v1.46s9.23,5.4,9.23,5.4v-1.46s-9.23-5.4-9.23-5.4Z"/>
          <path class="cls-4" d="M141.21,429.11v4.86c-.02,1.53,.86,3.32,2.02,4.22v4.38c-.83-.38-1.44-.35-1.44,.11l3.6,2.1c0-.46-.61-1.21-1.43-1.78v-4.38c.54,.21,1,.16,1.36-.07,.42-.32,.7-.91,.7-1.77v-4.86s-4.82-2.82-4.82-2.82Z"/>
          <path class="cls-4" d="M159.39,443.82l-.02,6.82,1.34,.78,.02-6.82-1.34-.78Z"/>
          <path class="cls-4" d="M160.06,439.71l-1.78,3.45,1.11,.65,2.44,1.41-1.77-5.51Z"/>
        </g>
        <path class="cls-4" d="M150.67,449.56c-.16,0-.34-.05-.51-.15l-12.53-7.32c-.54-.31-.97-1.1-.97-1.73l.04-14.59c0-.37,.14-.66,.39-.8,.25-.14,.55-.12,.85,.06l12.53,7.32c.55,.33,1,1.11,.99,1.75l-.04,14.59c0,.36-.15,.65-.4,.79-.11,.07-.23,.1-.36,.1Zm-13.23-24.16s-.06,0-.09,.02c-.08,.05-.13,.17-.13,.34l-.04,14.59c0,.45,.33,1.05,.71,1.27l12.53,7.32c.14,.08,.26,.09,.35,.06,.08-.05,.13-.17,.13-.33l.04-14.59c0-.45-.35-1.06-.73-1.28l-12.53-7.32c-.09-.05-.17-.08-.23-.08Z"/>
        <path class="cls-4" d="M169.32,460.45c-.16,0-.34-.05-.51-.15l-12.53-7.32c-.55-.32-.98-1.08-.98-1.73l.04-14.6c0-.36,.14-.66,.39-.8,.25-.15,.55-.13,.85,.05l12.53,7.32c.55,.32,1,1.11,.99,1.75l-.04,14.59c0,.35-.14,.64-.38,.79-.11,.07-.24,.1-.37,.1Zm-13.22-24.16s-.07,0-.09,.02c-.08,.05-.13,.17-.13,.34l-.04,14.6c0,.45,.34,1.05,.72,1.27l12.52,7.32c.14,.08,.27,.09,.35,.05,.08-.05,.13-.17,.13-.32l.04-14.59c0-.45-.35-1.06-.73-1.28l-12.53-7.32c-.09-.05-.16-.07-.23-.07Z"/>
        <path class="cls-4" d="M132.02,438.67c-.16,0-.34-.05-.51-.15l-12.53-7.32c-.55-.32-.98-1.08-.98-1.73l.04-14.6c0-.36,.14-.66,.39-.8,.25-.15,.55-.13,.85,.05l12.53,7.32c.55,.32,1,1.11,.99,1.75l-.04,14.59c0,.35-.14,.64-.38,.79-.11,.07-.24,.1-.37,.1Zm-13.22-24.16s-.07,0-.09,.02c-.08,.05-.13,.17-.13,.34l-.04,14.6c0,.45,.34,1.05,.72,1.27l12.52,7.32c.14,.08,.27,.09,.35,.05,.08-.05,.13-.17,.13-.32l.04-14.59c0-.45-.35-1.06-.73-1.28l-12.53-7.32c-.09-.05-.16-.07-.23-.07Z"/>
      </g>
      <path class="cls-4" d="M125.12,419.62v.68c-2.55-1.3-4.6-.02-4.61,2.96l4.59,2.68-.02,5.42c0,.94,.66,2.1,1.47,2.58,.81,.47,1.48,.09,1.48-.85l-.62-.36c0,.54-.39,.77-.86,.49-.47-.28-.86-.96-.86-1.5l.02-5.42,4.59,2.68c0-2.98-2.01-6.63-4.57-8.32v-.68s-.62-.36-.62-.36Z"/>
    </g>
    <g>
      <path class="cls-2" d="M214.43,425.16c-.63,.36-1.13,1.19-1.13,1.92l.04,10.45c0,.68,.5,.96,1.08,.64l16.32-9.53c.63-.36,1.13-1.23,1.13-1.92l-.05-10.45c0-.73-.5-1-1.08-.64l-16.32,9.53Z"/>
      <path class="cls-2" d="M213.26,411.62l.05,10.49c0,.68,.5,.96,1.08,.59l16.32-9.53c.63-.32,1.13-1.19,1.13-1.92l-.05-10.45c0-.73-.5-1-1.08-.64l-16.32,9.53c-.63,.37-1.13,1.19-1.13,1.92Z"/>
      <path class="cls-10" d="M214.86,430.46v.47s15.46-9.03,15.46-9.03v-.47s-15.46,9.03-15.46,9.03Z"/>
      <path class="cls-10" d="M214.86,429.06v.47s15.46-9.03,15.46-9.03v-.47s-15.46,9.03-15.46,9.03Z"/>
      <path class="cls-10" d="M214.85,426.25v.47s15.46-9.03,15.46-9.03v-.47s-15.46,9.03-15.46,9.03Z"/>
      <path class="cls-10" d="M214.88,436.09v.47s15.46-9.03,15.46-9.03v-.47s-15.46,9.03-15.46,9.03Z"/>
      <path class="cls-10" d="M214.87,434.68v.47s15.46-9.03,15.46-9.03v-.47s-15.46,9.03-15.46,9.03Z"/>
      <path class="cls-10" d="M214.87,433.27v.47s15.46-9.03,15.46-9.03v-.47s-15.46,9.03-15.46,9.03Z"/>
      <path class="cls-10" d="M214.87,431.87v.47s15.46-9.03,15.46-9.03v-.47s-15.46,9.03-15.46,9.03Z"/>
      <path class="cls-10" d="M214.85,427.65v.47s15.46-9.03,15.46-9.03v-.47s-15.46,9.03-15.46,9.03Z"/>
      <path class="cls-10" d="M214.82,416.44v.47s15.46-9.03,15.46-9.03v-.47s-15.46,9.03-15.46,9.03Z"/>
      <path class="cls-10" d="M214.82,415.04v.47s15.46-9.03,15.46-9.03v-.47s-15.46,9.03-15.46,9.03Z"/>
      <path class="cls-10" d="M214.81,412.23v.47s15.46-9.03,15.46-9.03v-.47s-15.46,9.03-15.46,9.03Z"/>
      <path class="cls-10" d="M214.81,410.82v.47s15.46-9.03,15.46-9.03v-.47s-15.46,9.03-15.46,9.03Z"/>
      <path class="cls-10" d="M214.83,420.63v.5s15.46-9.03,15.46-9.03v-.5s-15.46,9.03-15.46,9.03Z"/>
      <path class="cls-10" d="M214.83,419.22v.5s15.46-9.03,15.46-9.03v-.5s-15.46,9.03-15.46,9.03Z"/>
      <path class="cls-10" d="M214.83,417.81v.5s15.46-9.03,15.46-9.03v-.5s-15.46,9.03-15.46,9.03Z"/>
      <path class="cls-10" d="M214.81,413.63v.47s15.46-9.03,15.46-9.03v-.47s-15.46,9.03-15.46,9.03Z"/>
    </g>
  </g>
  <g>
    <path class="cls-15" d="M87.79,103.12l.19,66.45,59.41,34.93-.19-66.45-25.57-15.08-7.69-4.48-26.15-15.37Z"/>
    <path class="cls-8" d="M147.12,138.09l.24,66.36,59.77-34.95-.2-66.3v-.1h-.1l-25.93,15.21-5.89,3.48-1.77,.99-26.13,15.31Z"/>
    <path class="cls-16" d="M87.76,103.18l59.4,34.93,26.11-15.3,7.56-4.33,.15-.08,25.96-15.22-59.4-34.93-59.78,34.93Z"/>
    <path class="cls-19" d="M113.85,87.88l59.4,34.93,7.56-4.33,.15-.08-59.56-34.93-.08,.08-7.48,4.33Z"/>
    <path class="cls-12" d="M181.01,134.22l-7.69,4.57-.1-15.83v-.19l1.73-.97,5.96-3.41v.1l.1,15.73Z"/>
    <g>
      <g>
        <path class="cls-4" d="M138.95,181.12l-1.79,3.45,1.11,.65,2.45,1.42-1.77-5.51Z"/>
        <path class="cls-4" d="M138.27,185.21l-.02,6.82,1.34,.78,.02-6.82-1.34-.78Z"/>
        <path class="cls-4" d="M131.63,188.77v1.46s9.23,5.4,9.23,5.4v-1.46s-9.23-5.4-9.23-5.4Z"/>
        <path class="cls-4" d="M114.74,167.38v4.86c-.02,1.53,.86,3.32,2.02,4.22v4.38c-.83-.38-1.44-.35-1.44,.11l3.6,2.1c0-.46-.61-1.21-1.43-1.78v-4.38c.54,.21,1,.16,1.36-.07,.42-.32,.7-.91,.7-1.77v-4.86s-4.82-2.82-4.82-2.82Z"/>
        <path class="cls-4" d="M132.92,182.08l-.02,6.82,1.34,.78,.02-6.82-1.34-.78Z"/>
        <path class="cls-4" d="M133.59,177.98l-1.78,3.45,1.11,.65,2.44,1.41-1.77-5.51Z"/>
      </g>
      <path class="cls-4" d="M124.2,187.83c-.16,0-.34-.05-.51-.15l-12.53-7.32c-.54-.31-.97-1.1-.97-1.73l.04-14.59c0-.37,.14-.66,.39-.8,.25-.14,.55-.12,.85,.06l12.53,7.32c.55,.33,1,1.11,.99,1.75l-.04,14.59c0,.36-.15,.65-.4,.79-.11,.07-.23,.1-.36,.1Zm-13.23-24.16s-.06,0-.09,.02c-.08,.05-.13,.17-.13,.34l-.04,14.59c0,.45,.33,1.05,.71,1.27l12.53,7.32c.14,.08,.26,.09,.35,.06,.08-.05,.13-.17,.13-.33l.04-14.59c0-.45-.35-1.06-.73-1.28l-12.53-7.32c-.09-.05-.17-.08-.23-.08Z"/>
      <path class="cls-4" d="M142.85,198.72c-.16,0-.34-.05-.51-.15l-12.53-7.32c-.55-.32-.98-1.08-.98-1.73l.04-14.6c0-.36,.14-.66,.39-.8,.25-.15,.55-.13,.85,.05l12.53,7.32c.55,.32,1,1.11,.99,1.75l-.04,14.59c0,.35-.14,.64-.38,.79-.11,.07-.24,.1-.37,.1Zm-13.22-24.16s-.07,0-.09,.02c-.08,.05-.13,.17-.13,.34l-.04,14.6c0,.45,.34,1.05,.72,1.27l12.52,7.32c.14,.08,.27,.09,.35,.05,.08-.05,.13-.17,.13-.32l.04-14.59c0-.45-.35-1.06-.73-1.28l-12.53-7.32c-.09-.05-.16-.07-.23-.07Z"/>
      <path class="cls-4" d="M105.56,176.94c-.16,0-.34-.05-.51-.15l-12.53-7.32c-.55-.32-.98-1.08-.98-1.73l.04-14.6c0-.36,.14-.66,.39-.8,.25-.15,.55-.13,.85,.05l12.53,7.32c.55,.32,1,1.11,.99,1.75l-.04,14.59c0,.35-.14,.64-.38,.79-.11,.07-.24,.1-.37,.1Zm-13.22-24.16s-.07,0-.09,.02c-.08,.05-.13,.17-.13,.34l-.04,14.6c0,.45,.34,1.05,.72,1.27l12.52,7.32c.14,.08,.27,.09,.35,.05,.08-.05,.13-.17,.13-.32l.04-14.59c0-.45-.35-1.06-.73-1.28l-12.53-7.32c-.09-.05-.16-.07-.23-.07Z"/>
    </g>
    <path class="cls-4" d="M98.66,157.89v.68c-2.55-1.3-4.6-.02-4.61,2.96l4.59,2.68-.02,5.42c0,.94,.66,2.1,1.47,2.58,.81,.47,1.48,.09,1.48-.85l-.62-.36c0,.54-.39,.77-.86,.49-.47-.28-.86-.96-.86-1.5l.02-5.42,4.59,2.68c0-2.98-2.01-6.63-4.57-8.32v-.68s-.62-.36-.62-.36Z"/>
    <g>
      <path class="cls-2" d="M187.97,163.43c-.63,.36-1.13,1.19-1.13,1.92l.04,10.45c0,.68,.5,.96,1.08,.64l16.32-9.53c.63-.36,1.13-1.23,1.13-1.92l-.05-10.45c0-.73-.5-1-1.08-.64l-16.32,9.53Z"/>
      <path class="cls-2" d="M186.79,149.88l.05,10.49c0,.68,.5,.96,1.08,.59l16.32-9.53c.63-.32,1.13-1.19,1.13-1.92l-.05-10.45c0-.73-.5-1-1.08-.64l-16.32,9.53c-.63,.37-1.13,1.19-1.13,1.92Z"/>
      <path class="cls-10" d="M188.4,168.73v.47s15.46-9.03,15.46-9.03v-.47s-15.46,9.03-15.46,9.03Z"/>
      <path class="cls-10" d="M188.39,167.33v.47s15.46-9.03,15.46-9.03v-.47s-15.46,9.03-15.46,9.03Z"/>
      <path class="cls-10" d="M188.38,164.52v.47s15.46-9.03,15.46-9.03v-.47s-15.46,9.03-15.46,9.03Z"/>
      <path class="cls-10" d="M188.41,174.35v.47s15.46-9.03,15.46-9.03v-.47s-15.46,9.03-15.46,9.03Z"/>
      <path class="cls-10" d="M188.41,172.95v.47s15.46-9.03,15.46-9.03v-.47s-15.46,9.03-15.46,9.03Z"/>
      <path class="cls-10" d="M188.4,171.54v.47s15.46-9.03,15.46-9.03v-.47s-15.46,9.03-15.46,9.03Z"/>
      <path class="cls-10" d="M188.4,170.14v.47s15.46-9.03,15.46-9.03v-.47s-15.46,9.03-15.46,9.03Z"/>
      <path class="cls-10" d="M188.39,165.92v.47s15.46-9.03,15.46-9.03v-.47s-15.46,9.03-15.46,9.03Z"/>
      <path class="cls-10" d="M188.36,154.71v.47s15.46-9.03,15.46-9.03v-.47s-15.46,9.03-15.46,9.03Z"/>
      <path class="cls-10" d="M188.35,153.31v.47s15.46-9.03,15.46-9.03v-.47s-15.46,9.03-15.46,9.03Z"/>
      <path class="cls-10" d="M188.34,150.49v.47s15.46-9.03,15.46-9.03v-.47s-15.46,9.03-15.46,9.03Z"/>
      <path class="cls-10" d="M188.34,149.09v.47s15.46-9.03,15.46-9.03v-.47s-15.46,9.03-15.46,9.03Z"/>
      <path class="cls-10" d="M188.37,158.89v.5s15.46-9.03,15.46-9.03v-.5s-15.46,9.03-15.46,9.03Z"/>
      <path class="cls-10" d="M188.36,157.49v.5s15.46-9.03,15.46-9.03v-.5s-15.46,9.03-15.46,9.03Z"/>
      <path class="cls-10" d="M188.36,156.08v.5s15.46-9.03,15.46-9.03v-.5s-15.46,9.03-15.46,9.03Z"/>
      <path class="cls-10" d="M188.35,151.9v.47s15.46-9.03,15.46-9.03v-.47s-15.46,9.03-15.46,9.03Z"/>
    </g>
  </g>
</svg>