<?xml version="1.0" encoding="UTF-8"?>
<svg id="Layer_1" data-name="Layer 1" xmlns="http://www.w3.org/2000/svg" viewBox="0 0 512 512">
  <defs>
    <style>
      .cls-1 {
        fill: #ffc14d;
      }

      .cls-2 {
        fill: #ffe980;
      }

      .cls-3 {
        fill: #ff9733;
      }

      .cls-4 {
        fill: #7d4a3b;
      }

      .cls-5 {
        fill: #ff7f40;
      }
    </style>
  </defs>
  <g>
    <path class="cls-2" d="M446.7,458.57H151.36c-6.56,0-11.87-5.31-11.87-11.87V134.95c0-6.56,5.31-11.87,11.87-11.87H446.7c6.56,0,11.87,5.31,11.87,11.87V446.7c0,6.56-5.31,11.87-11.87,11.87Z"/>
    <g>
      <g>
        <path class="cls-2" d="M198.84,411.64H65.3c-6.56,0-11.87-5.31-11.87-11.87V132.07c0-43.36,35.28-78.64,78.64-78.64s78.64,35.28,78.64,78.64V399.77c0,6.56-5.31,11.87-11.87,11.87Z"/>
        <path class="cls-1" d="M132.46,53.43V411.64h66.38c6.56,0,11.87-5.31,11.87-11.87V132.07c0-43.23-35.06-78.42-78.24-78.63h0Z"/>
      </g>
      <g>
        <g>
          <path class="cls-1" d="M151.39,458.57h-38.63c-32.71,0-59.32-26.61-59.32-59.32s26.61-59.32,59.32-59.32h38.64c32.71,0,59.32,26.61,59.32,59.32s-26.61,59.32-59.32,59.32Z"/>
          <path class="cls-3" d="M151.39,339.93h-18.92v118.64h18.92c32.71,0,59.32-26.61,59.32-59.32s-26.61-59.32-59.32-59.32Z"/>
        </g>
        <g>
          <path class="cls-3" d="M151.73,411.14h-38.54c-6.56,0-11.87-5.31-11.87-11.87s5.31-11.87,11.87-11.87h38.54c6.56,0,11.87,5.31,11.87,11.87s-5.31,11.87-11.87,11.87Z"/>
          <path class="cls-5" d="M151.73,387.4h-19.27v23.74h19.27c6.56,0,11.87-5.31,11.87-11.87s-5.31-11.87-11.87-11.87Z"/>
        </g>
      </g>
    </g>
  </g>
  <g>
    <path class="cls-4" d="M362.03,455.43c-6.56,0-11.87-5.31-11.87-11.87v-23.74c0-6.56,5.31-11.87,11.87-11.87s11.87,5.31,11.87,11.87v23.74c0,6.56-5.31,11.87-11.87,11.87Z"/>
    <path class="cls-4" d="M362.03,384.21c-6.56,0-11.87-5.31-11.87-11.87v-23.74c0-6.56,5.31-11.87,11.87-11.87s11.87,5.31,11.87,11.87v23.74c0,6.56-5.31,11.87-11.87,11.87Z"/>
    <path class="cls-4" d="M362.03,312.99c-6.56,0-11.87-5.31-11.87-11.87v-23.74c0-6.56,5.31-11.87,11.87-11.87s11.87,5.31,11.87,11.87v23.74c0,6.56-5.31,11.87-11.87,11.87Z"/>
    <path class="cls-4" d="M362.03,241.78c-6.56,0-11.87-5.31-11.87-11.87v-23.74c0-6.56,5.31-11.87,11.87-11.87s11.87,5.31,11.87,11.87v23.74c0,6.56-5.31,11.87-11.87,11.87Z"/>
    <path class="cls-4" d="M362.03,170.56c-6.56,0-11.87-5.31-11.87-11.87v-23.74c0-6.56,5.31-11.87,11.87-11.87s11.87,5.31,11.87,11.87v23.74c0,6.56-5.31,11.87-11.87,11.87Z"/>
  </g>
</svg>