<?xml version="1.0" encoding="UTF-8"?>
<svg id="katman_1" data-name="katman 1" xmlns="http://www.w3.org/2000/svg" viewBox="0 0 300 88">
  <defs>
    <style>
      .cls-1 {
        font-family: Roboto-Medium, Roboto;
        font-size: 12.84px;
        font-weight: 500;
      }

      .cls-1, .cls-2, .cls-3 {
        fill: #2b2a28;
      }

      .cls-4 {
        font-family: Beauty, Beauty;
        font-size: 10.21px;
      }

      .cls-3 {
        font-family: MicrosoftUighur, 'Microsoft Uighur';
        font-size: 8.43px;
      }
    </style>
  </defs>
  <g>
    <ellipse class="cls-2" cx="212.36" cy="16.05" rx="3.89" ry="3.39" transform="translate(-.16 2.22) rotate(-.6)"/>
    <ellipse class="cls-2" cx="221.61" cy="16.04" rx="3.39" ry="3.9" transform="translate(204.41 237.56) rotate(-89.7)"/>
    <path class="cls-2" d="M56.67,34.4c-.13-.51-.32-.52-.56-.05-2.29,4.59-4.72,9.31-7.28,14.15-.85,1.62-1.76,2.73-2.72,3.32-2.46,1.52-6.44,.85-7.95-1.98-2.69-5.03-5.39-10.18-8.12-15.46-.25-.49-.45-.47-.58,.06l-4.43,17.12c-.09,.35-.32,.53-.68,.53l-7.92,.04c-.28,0-.51-.22-.51-.5,0-.05,0-.1,.02-.15,2.45-8.22,4.96-16.78,7.52-25.69,1.42-4.92,7.51-5.73,10.08-1.27,3.33,5.79,6.5,11.52,9.5,17.19,.07,.14,.24,.19,.38,.12,.05-.03,.1-.07,.12-.12,3.17-6.04,6.39-11.85,9.65-17.42,2.53-4.31,8.59-3.16,9.86,1.36,2.52,8.97,5.01,17.67,7.47,26.08,.04,.13-.04,.27-.17,.31-.02,0-.05,0-.07,0l-8.6,.03c-.17,0-.32-.11-.37-.28l-4.64-17.4Z"/>
    <path class="cls-2" d="M83.23,40.72l.02,3.31c0,.2,.17,.37,.37,.37h0l24.32-.06c.2,0,.37,.17,.37,.37,0,.08-.03,.16-.08,.23l-5.48,7.02c-.07,.09-.18,.14-.29,.14h-28.12c-.2,.01-.37-.16-.37-.36h0V22.51c0-.2,.17-.37,.37-.37h0l33.45,.02c.2,0,.37,.17,.37,.37,0,.08-.03,.16-.08,.23l-5.43,7.01c-.07,.09-.18,.14-.29,.14l-18.75,.02c-.2,0-.37,.17-.37,.37l.02,2.81c0,.2,.17,.37,.37,.37h22.53c.2,0,.37,.17,.37,.37,0,.08-.03,.16-.08,.23l-4.84,6.13c-.07,.09-.18,.14-.29,.14h-17.72c-.2,0-.37,.17-.37,.37h0Z"/>
    <path class="cls-2" d="M166.31,39.98l.25,11.78c0,.17-.13,.3-.3,.31l-8.75,.05c-.17,0-.31-.14-.31-.31V22.45c0-.17,.14-.31,.31-.31l8.74,.04c.17,0,.3,.14,.3,.31l-.2,10.97c0,.17,.13,.32,.3,.32,.08,0,.16-.03,.22-.08l13.24-11.44c.06-.05,.13-.07,.2-.07l12.72-.08c.17,0,.31,.14,.3,.32,0,.09-.04,.18-.11,.23l-17.95,13.35c-.14,.1-.16,.3-.06,.43,.02,.02,.03,.04,.06,.06l18.98,15.05c.13,.11,.15,.3,.04,.44-.06,.07-.14,.11-.23,.11l-13.17-.03c-.08,0-.15-.03-.21-.08l-13.85-12.25c-.13-.12-.32-.11-.44,.02-.06,.06-.09,.14-.08,.22Z"/>
    <path class="cls-2" d="M144.91,42.2c-.12,.03-.18,.16-.15,.27,0,.03,.03,.06,.05,.09l8.68,8.87c.15,.16,.15,.41,0,.57-.08,.07-.18,.12-.28,.11l-11.03-.04c-.37,0-.72-.17-.96-.45l-5.89-7.01c-.27-.33-.63-.49-1.06-.49l-12.82,.05c-.36,0-.54,.18-.53,.54l.07,6.44c0,.67-.33,1.01-1,1.01l-7.5-.02c-.66,0-.99-.33-.98-.98l.03-13.98c0-.27,.22-.49,.49-.49,8.47,.04,17.3,.04,26.51,0,2.65-.01,5.61-2.72,3.21-5.33-1.1-1.19-3.03-1.42-4.57-1.42-8.93-.03-17.19-.02-24.79,.02-.24,0-.43-.19-.44-.42,0-.1,.03-.2,.1-.28l5.14-6.58c.26-.33,.59-.49,1-.49,7.65-.08,14.63-.05,20.93,.1,6.33,.15,13.29,3.54,12.99,10.75-.19,4.69-2.59,7.74-7.19,9.17Z"/>
    <path class="cls-2" d="M207.09,41.86c2.23,4.05,12.94,3.16,16.12,2.43,2.63-.61,3.96-2.23,3.97-4.87,.03-5.41,.04-11.07,.03-16.97,0-.21,.1-.32,.31-.32l8.52,.03c.34,0,.51,.18,.51,.52-.07,3.68-.06,7.42,.03,11.21,.1,3.98-.12,7.12-.66,9.41-2.5,10.61-18.88,9.85-26.67,8.55-6.29-1.05-11.47-4.65-11.71-11.6-.17-4.74-.2-10.6-.07-17.58,0-.35,.18-.52,.53-.52l8.06,.02c.39,0,.58,.19,.58,.58v17.38c0,.61,.15,1.19,.45,1.73Z"/>
    <path class="cls-2" d="M274.96,42.16c-.15,.03-.25,.18-.21,.33,.01,.06,.04,.11,.08,.15,2.99,2.85,5.99,5.97,9.01,9.38,.02,0,.02,.03,0,.04,0,0-.02,.01-.03,.02-3.85,.05-7.83,.05-11.95,0-.16,0-.3-.08-.4-.19l-6.17-7.25c-.27-.31-.65-.49-1.05-.49l-12.68,.02c-.44,0-.66,.22-.65,.66l.04,6.69c0,.39-.19,.58-.58,.59l-8.06,.02c-.34,0-.61-.27-.62-.61,0,0,0,0,0-.01l-.04-14.34c0-.25,.2-.45,.45-.45h0c8.72,.03,17.47,.02,26.24-.03,5.7-.03,5.79-6.73-.38-6.75-8.25-.03-16.77-.02-25.56,.01-.24,0-.43-.19-.44-.42,0-.1,.03-.2,.1-.28l5.07-6.48c.3-.38,.75-.61,1.23-.61,7.31-.02,14.08,0,20.31,.08,7,.08,14.4,3.76,13.28,12.11-.53,3.88-3.18,6.92-7,7.82Z"/>
    <text class="cls-1" transform="translate(15.92 71.87)"><tspan x="0" y="0">TEKSTİL AMBALAJ SANAYİ TİCARET LTD. ŞTİ.</tspan></text>
  </g>
  <text class="cls-4" transform="translate(12.8 22.08) rotate(-9.83)"><tspan x="0" y="0">Since</tspan></text>
  <text class="cls-3" transform="translate(27.93 16.51) rotate(-9.83)"><tspan x="0" y="0">1997</tspan></text>
</svg>