<?xml version="1.0" encoding="utf-8"?>
<!-- Generator: Adobe Illustrator 27.0.1, SVG Export Plug-In . SVG Version: 6.00 Build 0)  -->
<svg version="1.1" id="katman_1" xmlns="http://www.w3.org/2000/svg" xmlns:xlink="http://www.w3.org/1999/xlink" x="0px" y="0px"
	 viewBox="0 0 300 88" style="enable-background:new 0 0 300 88;" xml:space="preserve">
<style type="text/css">
	.st0{fill:#FFFFFF;}
	.st1{font-family:'Roboto-Medium';}
	.st2{font-size:12.84px;}
</style>
<g>
	
		<ellipse transform="matrix(0.9999 -1.047178e-02 1.047178e-02 0.9999 -0.1564 2.2246)" class="st0" cx="212.4" cy="16" rx="3.9" ry="3.4"/>
	<ellipse transform="matrix(5.236017e-03 -1 1 5.236017e-03 204.413 237.5602)" class="st0" cx="221.6" cy="16" rx="3.4" ry="3.9"/>
	<path class="st0" d="M56.7,34.4c-0.1-0.5-0.3-0.5-0.6,0c-2.3,4.6-4.7,9.3-7.3,14.1c-0.8,1.6-1.8,2.7-2.7,3.3c-2.5,1.5-6.4,0.8-8-2
		c-2.7-5-5.4-10.2-8.1-15.5c-0.2-0.5-0.5-0.5-0.6,0.1L25,51.6c-0.1,0.3-0.3,0.5-0.7,0.5l-7.9,0c-0.3,0-0.5-0.2-0.5-0.5
		c0,0,0-0.1,0-0.2c2.5-8.2,5-16.8,7.5-25.7c1.4-4.9,7.5-5.7,10.1-1.3C36.9,30.3,40,36,43,41.7c0.1,0.1,0.2,0.2,0.4,0.1
		c0,0,0.1-0.1,0.1-0.1c3.2-6,6.4-11.9,9.6-17.4c2.5-4.3,8.6-3.2,9.9,1.4c2.5,9,5,17.7,7.5,26.1c0,0.1,0,0.3-0.2,0.3c0,0-0.1,0-0.1,0
		l-8.6,0c-0.2,0-0.3-0.1-0.4-0.3L56.7,34.4L56.7,34.4z"/>
	<path class="st0" d="M83.2,40.7l0,3.3c0,0.2,0.2,0.4,0.4,0.4l0,0l24.3-0.1c0.2,0,0.4,0.2,0.4,0.4c0,0.1,0,0.2-0.1,0.2l-5.5,7
		c-0.1,0.1-0.2,0.1-0.3,0.1H74.3c-0.2,0-0.4-0.2-0.4-0.4l0,0V22.5c0-0.2,0.2-0.4,0.4-0.4l0,0l33.4,0c0.2,0,0.4,0.2,0.4,0.4
		c0,0.1,0,0.2-0.1,0.2l-5.4,7c-0.1,0.1-0.2,0.1-0.3,0.1l-18.8,0c-0.2,0-0.4,0.2-0.4,0.4l0,2.8c0,0.2,0.2,0.4,0.4,0.4h22.5
		c0.2,0,0.4,0.2,0.4,0.4c0,0.1,0,0.2-0.1,0.2l-4.8,6.1c-0.1,0.1-0.2,0.1-0.3,0.1H83.6C83.4,40.3,83.2,40.5,83.2,40.7L83.2,40.7
		L83.2,40.7z"/>
	<path class="st0" d="M166.3,40l0.2,11.8c0,0.2-0.1,0.3-0.3,0.3l-8.8,0c-0.2,0-0.3-0.1-0.3-0.3V22.5c0-0.2,0.1-0.3,0.3-0.3l8.7,0
		c0.2,0,0.3,0.1,0.3,0.3l-0.2,11c0,0.2,0.1,0.3,0.3,0.3c0.1,0,0.2,0,0.2-0.1l13.2-11.4c0.1,0,0.1-0.1,0.2-0.1l12.7-0.1
		c0.2,0,0.3,0.1,0.3,0.3c0,0.1,0,0.2-0.1,0.2L175.3,36c-0.1,0.1-0.2,0.3-0.1,0.4c0,0,0,0,0.1,0.1l19,15c0.1,0.1,0.1,0.3,0,0.4
		c-0.1,0.1-0.1,0.1-0.2,0.1l-13.2,0c-0.1,0-0.1,0-0.2-0.1l-13.9-12.2c-0.1-0.1-0.3-0.1-0.4,0C166.3,39.8,166.3,39.9,166.3,40z"/>
	<path class="st0" d="M144.9,42.2c-0.1,0-0.2,0.2-0.1,0.3c0,0,0,0.1,0.1,0.1l8.7,8.9c0.1,0.2,0.1,0.4,0,0.6
		c-0.1,0.1-0.2,0.1-0.3,0.1l-11,0c-0.4,0-0.7-0.2-1-0.5l-5.9-7c-0.3-0.3-0.6-0.5-1.1-0.5l-12.8,0c-0.4,0-0.5,0.2-0.5,0.5l0.1,6.4
		c0,0.7-0.3,1-1,1l-7.5,0c-0.7,0-1-0.3-1-1l0-14c0-0.3,0.2-0.5,0.5-0.5c8.5,0,17.3,0,26.5,0c2.6,0,5.6-2.7,3.2-5.3
		c-1.1-1.2-3-1.4-4.6-1.4c-8.9,0-17.2,0-24.8,0c-0.2,0-0.4-0.2-0.4-0.4c0-0.1,0-0.2,0.1-0.3l5.1-6.6c0.3-0.3,0.6-0.5,1-0.5
		c7.7-0.1,14.6,0,20.9,0.1c6.3,0.1,13.3,3.5,13,10.7C151.9,37.7,149.5,40.8,144.9,42.2L144.9,42.2z"/>
	<path class="st0" d="M207.1,41.9c2.2,4,12.9,3.2,16.1,2.4c2.6-0.6,4-2.2,4-4.9c0-5.4,0-11.1,0-17c0-0.2,0.1-0.3,0.3-0.3l8.5,0
		c0.3,0,0.5,0.2,0.5,0.5c-0.1,3.7-0.1,7.4,0,11.2c0.1,4-0.1,7.1-0.7,9.4c-2.5,10.6-18.9,9.8-26.7,8.5c-6.3-1-11.5-4.7-11.7-11.6
		c-0.2-4.7-0.2-10.6-0.1-17.6c0-0.4,0.2-0.5,0.5-0.5l8.1,0c0.4,0,0.6,0.2,0.6,0.6v17.4C206.6,40.7,206.8,41.3,207.1,41.9L207.1,41.9
		z"/>
	<path class="st0" d="M275,42.2c-0.1,0-0.2,0.2-0.2,0.3c0,0.1,0,0.1,0.1,0.2c3,2.8,6,6,9,9.4c0,0,0,0,0,0c0,0,0,0,0,0
		c-3.9,0-7.8,0-12,0c-0.2,0-0.3-0.1-0.4-0.2l-6.2-7.2c-0.3-0.3-0.6-0.5-1-0.5l-12.7,0c-0.4,0-0.7,0.2-0.6,0.7l0,6.7
		c0,0.4-0.2,0.6-0.6,0.6l-8.1,0c-0.3,0-0.6-0.3-0.6-0.6c0,0,0,0,0,0l0-14.3c0-0.2,0.2-0.5,0.4-0.5l0,0c8.7,0,17.5,0,26.2,0
		c5.7,0,5.8-6.7-0.4-6.8c-8.2,0-16.8,0-25.6,0c-0.2,0-0.4-0.2-0.4-0.4c0-0.1,0-0.2,0.1-0.3l5.1-6.5c0.3-0.4,0.8-0.6,1.2-0.6
		c7.3,0,14.1,0,20.3,0.1c7,0.1,14.4,3.8,13.3,12.1C281.4,38.2,278.8,41.3,275,42.2L275,42.2z"/>
	<text transform="matrix(1 0 0 1 15.92 71.87)" class="st0 st1 st2">TEKSTİL AMBALAJ SANAYİ TİCARET LTD. ŞTİ.</text>
</g>
</svg>
