<?xml version="1.0" encoding="utf-8"?>
<!-- Generator: Adobe Illustrator 27.0.1, SVG Export Plug-In . SVG Version: 6.00 Build 0)  -->
<svg version="1.1" id="katman_1" xmlns="http://www.w3.org/2000/svg" xmlns:xlink="http://www.w3.org/1999/xlink" x="0px" y="0px"
	 viewBox="0 0 300 88" style="enable-background:new 0 0 300 88;" xml:space="preserve">
<style type="text/css">
	.st0{fill:#2B2A28;}
	.st1{font-family:'Roboto-Medium';}
	.st2{font-size:12.84px;}
	.st3{enable-background:new    ;}
</style>
<g>
	
		<ellipse transform="matrix(0.9999 -1.047178e-02 1.047178e-02 0.9999 -0.1564 2.2246)" class="st0" cx="212.4" cy="16" rx="3.9" ry="3.4"/>
	<ellipse transform="matrix(5.236017e-03 -1 1 5.236017e-03 204.413 237.5602)" class="st0" cx="221.6" cy="16" rx="3.4" ry="3.9"/>
	<path class="st0" d="M56.7,34.4c-0.1-0.5-0.3-0.5-0.6,0c-2.3,4.6-4.7,9.3-7.3,14.1c-0.8,1.6-1.8,2.7-2.7,3.3c-2.5,1.5-6.4,0.8-8-2
		c-2.7-5-5.4-10.2-8.1-15.5c-0.2-0.5-0.5-0.5-0.6,0.1L25,51.6c-0.1,0.3-0.3,0.5-0.7,0.5l-7.9,0c-0.3,0-0.5-0.2-0.5-0.5
		c0,0,0-0.1,0-0.2c2.5-8.2,5-16.8,7.5-25.7c1.4-4.9,7.5-5.7,10.1-1.3C36.9,30.3,40,36,43,41.7c0.1,0.1,0.2,0.2,0.4,0.1
		c0,0,0.1-0.1,0.1-0.1c3.2-6,6.4-11.9,9.6-17.4c2.5-4.3,8.6-3.2,9.9,1.4c2.5,9,5,17.7,7.5,26.1c0,0.1,0,0.3-0.2,0.3c0,0-0.1,0-0.1,0
		l-8.6,0c-0.2,0-0.3-0.1-0.4-0.3L56.7,34.4L56.7,34.4z"/>
	<path class="st0" d="M83.2,40.7l0,3.3c0,0.2,0.2,0.4,0.4,0.4l0,0l24.3-0.1c0.2,0,0.4,0.2,0.4,0.4c0,0.1,0,0.2-0.1,0.2l-5.5,7
		c-0.1,0.1-0.2,0.1-0.3,0.1H74.3c-0.2,0-0.4-0.2-0.4-0.4l0,0V22.5c0-0.2,0.2-0.4,0.4-0.4l0,0l33.4,0c0.2,0,0.4,0.2,0.4,0.4
		c0,0.1,0,0.2-0.1,0.2l-5.4,7c-0.1,0.1-0.2,0.1-0.3,0.1l-18.8,0c-0.2,0-0.4,0.2-0.4,0.4l0,2.8c0,0.2,0.2,0.4,0.4,0.4h22.5
		c0.2,0,0.4,0.2,0.4,0.4c0,0.1,0,0.2-0.1,0.2l-4.8,6.1c-0.1,0.1-0.2,0.1-0.3,0.1H83.6C83.4,40.3,83.2,40.5,83.2,40.7L83.2,40.7
		L83.2,40.7z"/>
	<path class="st0" d="M166.3,40l0.2,11.8c0,0.2-0.1,0.3-0.3,0.3l-8.8,0c-0.2,0-0.3-0.1-0.3-0.3V22.5c0-0.2,0.1-0.3,0.3-0.3l8.7,0
		c0.2,0,0.3,0.1,0.3,0.3l-0.2,11c0,0.2,0.1,0.3,0.3,0.3c0.1,0,0.2,0,0.2-0.1l13.2-11.4c0.1,0,0.1-0.1,0.2-0.1l12.7-0.1
		c0.2,0,0.3,0.1,0.3,0.3c0,0.1,0,0.2-0.1,0.2L175.3,36c-0.1,0.1-0.2,0.3-0.1,0.4c0,0,0,0,0.1,0.1l19,15c0.1,0.1,0.1,0.3,0,0.4
		c-0.1,0.1-0.1,0.1-0.2,0.1l-13.2,0c-0.1,0-0.1,0-0.2-0.1l-13.9-12.2c-0.1-0.1-0.3-0.1-0.4,0C166.3,39.8,166.3,39.9,166.3,40z"/>
	<path class="st0" d="M144.9,42.2c-0.1,0-0.2,0.2-0.1,0.3c0,0,0,0.1,0.1,0.1l8.7,8.9c0.1,0.2,0.1,0.4,0,0.6
		c-0.1,0.1-0.2,0.1-0.3,0.1l-11,0c-0.4,0-0.7-0.2-1-0.5l-5.9-7c-0.3-0.3-0.6-0.5-1.1-0.5l-12.8,0c-0.4,0-0.5,0.2-0.5,0.5l0.1,6.4
		c0,0.7-0.3,1-1,1l-7.5,0c-0.7,0-1-0.3-1-1l0-14c0-0.3,0.2-0.5,0.5-0.5c8.5,0,17.3,0,26.5,0c2.6,0,5.6-2.7,3.2-5.3
		c-1.1-1.2-3-1.4-4.6-1.4c-8.9,0-17.2,0-24.8,0c-0.2,0-0.4-0.2-0.4-0.4c0-0.1,0-0.2,0.1-0.3l5.1-6.6c0.3-0.3,0.6-0.5,1-0.5
		c7.7-0.1,14.6,0,20.9,0.1c6.3,0.1,13.3,3.5,13,10.7C151.9,37.7,149.5,40.8,144.9,42.2L144.9,42.2z"/>
	<path class="st0" d="M207.1,41.9c2.2,4,12.9,3.2,16.1,2.4c2.6-0.6,4-2.2,4-4.9c0-5.4,0-11.1,0-17c0-0.2,0.1-0.3,0.3-0.3l8.5,0
		c0.3,0,0.5,0.2,0.5,0.5c-0.1,3.7-0.1,7.4,0,11.2c0.1,4-0.1,7.1-0.7,9.4c-2.5,10.6-18.9,9.8-26.7,8.5c-6.3-1-11.5-4.7-11.7-11.6
		c-0.2-4.7-0.2-10.6-0.1-17.6c0-0.4,0.2-0.5,0.5-0.5l8.1,0c0.4,0,0.6,0.2,0.6,0.6v17.4C206.6,40.7,206.8,41.3,207.1,41.9L207.1,41.9
		z"/>
	<path class="st0" d="M275,42.2c-0.1,0-0.2,0.2-0.2,0.3c0,0.1,0,0.1,0.1,0.2c3,2.8,6,6,9,9.4c0,0,0,0,0,0c0,0,0,0,0,0
		c-3.9,0-7.8,0-12,0c-0.2,0-0.3-0.1-0.4-0.2l-6.2-7.2c-0.3-0.3-0.6-0.5-1-0.5l-12.7,0c-0.4,0-0.7,0.2-0.6,0.7l0,6.7
		c0,0.4-0.2,0.6-0.6,0.6l-8.1,0c-0.3,0-0.6-0.3-0.6-0.6c0,0,0,0,0,0l0-14.3c0-0.2,0.2-0.5,0.4-0.5l0,0c8.7,0,17.5,0,26.2,0
		c5.7,0,5.8-6.7-0.4-6.8c-8.2,0-16.8,0-25.6,0c-0.2,0-0.4-0.2-0.4-0.4c0-0.1,0-0.2,0.1-0.3l5.1-6.5c0.3-0.4,0.8-0.6,1.2-0.6
		c7.3,0,14.1,0,20.3,0.1c7,0.1,14.4,3.8,13.3,12.1C281.4,38.2,278.8,41.3,275,42.2L275,42.2z"/>
	<text transform="matrix(1 0 0 1 15.92 71.87)" class="st0 st1 st2">TEKSTİL AMBALAJ SANAYİ TİCARET LTD. ŞTİ.</text>
</g>
<g class="st3">
	<path d="M15.6,8.9l0.1,0c0.1-0.1,0.2-0.1,0.3-0.1l0,0c0.7,0.1,1.2,0.3,1.5,0.6c0.2,0.5,0.4,0.7,0.4,0.7l0,0.2c0,0.3,0,0.5,0,0.6
		L18,11c0,0.2,0,0.7-0.1,1.5c-0.1,0.3-0.2,0.6-0.2,0.8c-0.2,0.7-0.4,1.3-0.7,1.9l-0.4,1c0,0.1-0.1,0.3-0.3,0.6c0,0.1,0,0.2-0.1,0.4
		c0,0.1,0.4,0.5,1.1,1.1c0-0.2,0.6-0.6,1.6-1.2l0.1,0c0.1-0.2,0.3-0.4,0.8-0.6l1.1-1c0.2-0.2,0.4-0.4,0.5-0.4c0,0,0,0,0,0
		c0-0.1,0.2-0.3,0.6-0.4c0.1-0.1,0.2-0.2,0.4-0.3c0-0.1,0.1-0.1,0.4-0.2c-0.2,0.5-0.6,0.9-1,1.2c-0.3,0.2-0.6,0.6-1.1,1.1
		c-0.3,0.3-0.6,0.5-0.6,0.6c-0.1,0-0.7,0.5-1.8,1.4c0,0-0.2,0.1-0.3,0.3c-0.1,0-0.1,0-0.1,0c0.3,0.5,0.6,0.9,0.8,1.2
		c0.4,0.5,0.6,1,0.7,1.3c0,0,0.1,0.2,0.3,0.6l0,0.1l0.1,0.4c0.1,0.5-0.1,1.1-0.5,1.8c-0.4,0.4-0.8,0.7-1.2,0.7l-0.4,0.1
		c-0.2,0-0.5,0-1-0.1l0,0c0,0,0.1,0,0.1,0.1c-0.3,0-0.6-0.1-0.8-0.3c-0.3,0-0.6-0.2-1.1-0.7c-0.1-0.1-0.1-0.2-0.2-0.4l0-0.1
		c0-0.2,0-0.3,0-0.4l0,0c0-0.2,0-0.5,0.1-0.7c0-0.2,0.1-0.7,0.5-1.3c0.4-0.8,0.7-1.3,1.1-1.3c0.4-0.5,0.7-0.8,0.6-0.9L16,18.3
		c-0.1,0-0.2-0.1-0.5-0.4l0.1,0c-0.2,0.4-0.4,0.7-0.4,0.7c-0.1,0-0.2,0.1-0.3,0.3c-0.1,0-0.1,0.1-0.2,0.4c-0.1,0-0.2,0.2-0.4,0.7
		c-0.2,0.3-0.5,0.6-0.9,1.1c0,0.1-0.1,0.1-0.2,0.3c0,0.1-0.2,0.2-0.4,0.4c-0.3,0.5-0.6,0.9-1.1,1.2c0,0.1-0.2,0.3-0.6,0.6
		c-0.1,0.2-0.3,0.4-0.7,0.8c-0.4,0.4-0.7,0.7-0.9,0.8c-0.8,0.7-1.6,1.2-2.5,1.6c-0.4,0.2-0.8,0.4-1.2,0.4l-0.1,0c-0.1,0-0.2,0-0.4,0
		c0,0,0.1,0,0.1,0c-0.6,0.1-1.3-0.1-2-0.5c-0.2-0.3-0.4-0.4-0.5-0.4l0-0.2l0,0C3,26,2.9,25.8,2.8,25.5c0,0,0-0.1,0-0.2l-0.1-0.1
		c0-0.3,0.1-0.8,0.2-1.5c0.1-0.2,0.2-0.5,0.3-0.8C4,21.6,4.4,21,4.6,21c0.3-0.5,0.6-0.9,1-1.1c0.7-0.5,1.2-0.8,1.5-0.9
		c0.9-0.1,1.4,0,1.5,0.3c0,0.3-0.1,0.5-0.3,0.6c-0.1-0.2-0.4-0.3-0.7-0.2l-0.2,0L7,19.8c0-0.1,0-0.1,0-0.1c-0.5,0.3-0.9,0.6-1.2,0.9
		C5,21.5,4.4,22.4,4,23.2c0,0.1-0.1,0.4-0.3,1c-0.1,0.4-0.1,0.6-0.1,0.8c0.1,0.8,0.5,1.3,1.1,1.4c0.2,0.1,0.4,0.1,0.8,0.1
		c0.6-0.1,1.3-0.4,2-0.8c0.3-0.1,0.7-0.4,1.2-0.8c0.1,0,0.2-0.2,0.5-0.5c0.3-0.2,0.6-0.4,0.7-0.6l1.1-1c0,0,0.2-0.3,0.7-0.8
		c0,0,0.2-0.2,0.6-0.6l0.6-0.9c0.2,0,0.7-0.8,1.6-2.2c0,0,0.2-0.3,0.5-0.9c0.1,0,0.1,0,0.1,0c0,0-0.1-0.2-0.4-0.5
		c0,0-0.1-0.2-0.4-0.4c-0.4-0.4-0.7-0.9-1.1-1.4l0-0.1l0-0.1c-0.1,0-0.2-0.2-0.3-0.6c-0.1-0.1-0.1-0.2-0.2-0.2l0.1-0.2
		c0-0.1-0.1-0.2-0.1-0.2l0-0.6l0-0.1c0-0.2,0-0.4,0-0.4l-0.1-0.2c0-0.1,0-0.2,0-0.2c0.1,0,0.1-0.1,0-0.2l0-0.1
		c0.1,0,0.1-0.3,0.2-0.8c0.1-0.4,0.3-0.6,0.4-0.6c0-0.2,0.2-0.4,0.5-0.7l0.8-0.7c0.1,0,0.1,0.1,0.1,0.1l0-0.1l0.2,0.1
		c0.1,0,0.1-0.1,0.1-0.2C15,9.1,15.3,9,15.6,8.9z M11.5,22.9l0-0.1l0,0C11.5,22.8,11.5,22.9,11.5,22.9L11.5,22.9z M13.4,13.2
		l0.1,0.5l0.1,0.2l0,0.1c0.3,0.7,0.8,1.5,1.7,2.5c0.2,0.2,0.2,0.2,0.2,0.2l0.3-0.4l0,0l0,0.1l-0.1,0c0.1-0.3,0.2-0.5,0.3-0.7
		c0.2-0.5,0.3-0.9,0.5-1l0.1,0c0,0.1,0,0.1,0,0.1l-0.1,0c0-0.1,0-0.1,0.1-0.2l0,0.1l0,0l-0.1,0.1l-0.1,0l0-0.2
		c0.2-0.5,0.3-0.8,0.4-0.8c0.1,0,0.1-0.2,0.2-0.4l-0.1-0.2l0.2-0.1l0-0.3l0.2-0.1l0-0.2c0.1-0.4,0.1-0.7,0.2-0.8c0,0,0-0.1,0-0.1
		c0-0.1,0.1-0.2,0.1-0.2c0,0.1,0,0.1,0,0.1c0-0.3,0-0.5,0-0.7c0,0,0-0.1-0.1-0.1c0-0.2,0-0.3,0-0.3c-0.2-0.6-0.5-0.9-0.8-0.9
		c0-0.1-0.2-0.1-0.4-0.1c-0.8,0.1-1.6,0.7-2.3,1.7C13.4,11.8,13.3,12.5,13.4,13.2z M13.8,19.7C13.9,19.7,13.9,19.7,13.8,19.7
		l0.2-0.1C14,19.7,14,19.7,13.8,19.7L13.8,19.7l0.1,0.1C13.9,19.8,13.9,19.8,13.8,19.7z M14.2,19.3l0-0.1l-0.1,0L14.2,19.3
		L14.2,19.3z M15.1,23.5c0.1,0.4,0.5,0.7,1.3,0.8c0.2,0,0.5,0,0.7,0l0.3-0.1c0.3,0,0.6-0.3,0.9-0.8c0.1-0.5,0.1-0.7,0.1-0.8
		c0,0,0-0.1,0-0.3l0-0.1l-0.1-0.2c0.1,0,0.1,0,0.1,0l-0.3-0.8l0,0C18,21.1,18,21,17.9,20.9c0,0-0.1-0.2-0.3-0.5c0,0-0.1-0.1-0.1-0.3
		l0,0L17,19.5l0,0.1c-1.2,1.3-1.8,2.4-1.9,3.1C15.1,22.9,15.1,23.1,15.1,23.5z M16,16.6L16,16.6l-0.1-0.1L16,16.6L16,16.6z
		 M16.9,14.3L16.9,14.3l-0.2-0.1l0,0.1L16.9,14.3z"/>
	<path d="M22,14.1L22,14.1c0.2,0,0.4,0,0.5,0.1l0,0.1c-0.3,1-0.4,1.8-0.3,2.4l0.1,0.5c0,0.2,0.2,0.4,0.3,0.4l0.3-0.1
		c0.4-0.1,1-0.6,1.8-1.6c0.1,0,0.2-0.1,0.2-0.3c0,0,0.4-0.5,1-1.4c0,0,0.1-0.1,0.1-0.3c0.2-0.1,0.3-0.2,0.4-0.2l0,0
		c0.1,0,0.1,0,0.1,0.1c-0.1,0.8-0.5,1.7-1,2.7c-0.7,1-1.4,1.6-1.9,1.8l-0.4,0.2c-1,0.1-1.6-0.3-1.8-1.2c0,0-0.1-0.1-0.1-0.2
		c0-1.2,0.2-2,0.6-2.5L22,14.1z M23.8,10.1c0.3,0,0.5,0,0.5,0l0,0.1c0,0.3-0.4,0.9-1.2,1.6c-0.4,0.3-0.7,0.5-0.9,0.6
		c-0.3,0-0.5-0.1-0.5-0.4c0-0.2,0.4-0.6,1.2-1.2C23.1,10.6,23.4,10.4,23.8,10.1z"/>
	<path d="M26.3,13.3c0.3,0,0.5,0.1,0.5,0.3l0,0.1c0.1,0.2,0,0.5-0.1,0.8l0,0l0,0c0.5-0.7,0.9-1.1,1.1-1.2c0,0,0.1-0.2,0.3-0.3l0.3,0
		c0.6-0.1,0.9,0.2,1.1,0.9c-0.1,0.2-0.1,0.3-0.1,0.3l0.1,0.1c-0.1,0.7-0.1,1.2,0,1.4l0.1,0.3c0,0,0.1,0.1,0.1,0.1l0.1,0
		c0.7-0.3,1.3-0.7,1.8-1.3c0.5-0.6,0.9-1,1-1.5c0.1-0.3,0.2-0.4,0.3-0.4s0.1,0,0.2,0c0.1,0,0.1,0.2-0.1,0.5c-0.3,0.7-0.6,1.3-1,1.8
		c-0.3,0.4-0.8,0.9-1.3,1.3c-0.1,0.1-0.4,0.3-0.7,0.4c-0.8,0.1-1.3-0.2-1.4-0.6c0,0-0.1-0.1-0.1-0.2c0-0.2,0-0.8,0.1-1.8l-0.1-0.3
		c0,0,0-0.1-0.1-0.1l-0.1,0c-0.4,0.4-0.7,0.8-1.1,1.3c0,0-0.1,0.2-0.3,0.5c-0.1,0.1-0.3,0.4-0.5,1c-0.1,0-0.1,0.3-0.2,0.7
		c-0.2,0.6-0.3,0.9-0.4,0.9c0,0,0,0.1-0.1,0.1c-0.4,0-0.6-0.1-0.6-0.3l0,0c0-0.5,0-1.3,0.3-2.2c0.2-0.6,0.4-1.3,0.5-2
		C26.1,13.4,26.2,13.3,26.3,13.3z"/>
	<path d="M34.9,10.8l0.2,0c0.5,0,0.7,0.1,0.8,0.4l0,0.1c-0.1,0.8-0.2,1.2-0.5,1.2c-0.2,0-0.4-0.1-0.6-0.3c0.1-0.3,0.1-0.5,0.1-0.6
		c-0.2,0.1-0.7,0.7-1.5,1.8c-0.2,0.7-0.3,1.1-0.3,1.2l0.1,0.3c0,0.3,0.4,0.4,1,0.3c1.6-0.5,2.7-1.5,3.4-2.9c0.1,0,0.3-0.3,0.7-0.7
		l0.1,0l0.1,0.5c-0.1,0-0.2,0.3-0.5,0.9c-0.1,0-0.3,0.3-0.6,0.9c-0.8,1.2-1.9,2-3.3,2.2l-0.2,0c-0.8,0.1-1.4-0.2-1.7-1l0-0.1
		c-0.1-0.7,0.2-1.5,0.8-2.3C34,11.5,34.6,10.9,34.9,10.8z M38.2,12C38.2,12,38.2,12,38.2,12l0.1-0.2l0,0l0,0
		C38.3,11.9,38.3,11.9,38.2,12z"/>
	<path d="M39.6,10.4c0.2,0,0.4,0.1,0.7,0.3c0.1,0.4,0,0.7-0.1,1.1c-0.6,0.9-1.1,1.5-1.5,1.7l-0.4,0.3l0,0.2c0.1,0.3,0.4,0.4,1,0.3
		c0.4-0.1,0.8-0.3,1.1-0.5c0.4-0.2,0.8-0.8,1.4-1.7c0.1-0.3,0.3-0.7,0.5-1l0.2,0c0,0.1,0.1,0.2,0.1,0.2l0,0.1
		c-0.4,1.8-1.4,3-2.8,3.5c-0.1,0-0.3,0.1-0.5,0.2c-0.9,0.2-1.6-0.2-2-1l-0.2-0.6l0.2,0c0-0.6,0.4-1.2,1.1-2.1
		C38.8,10.7,39.2,10.5,39.6,10.4z M38.1,12.8c0.8-0.4,1.3-1,1.5-1.7l0,0c0,0,0,0,0,0C39.1,11.3,38.6,11.8,38.1,12.8L38.1,12.8z
		 M42.6,10.7l0.1,0.2L42.5,11l-0.3,0l0-0.2L42.6,10.7z"/>
</g>
<g class="st3">
	<path class="st0" d="M48.5,12l0,0.3c-0.2,0-0.5,0.1-0.8,0.1c-0.3,0.1-0.8,0.1-1.4,0.2c-0.6,0.1-1,0.2-1.4,0.2
		c-0.4,0.1-0.6,0.1-0.8,0.1l-0.1-0.3c0.4-0.1,0.7-0.1,0.9-0.2c0.2-0.1,0.4-0.2,0.5-0.3c0.1-0.1,0.1-0.3,0.1-0.4c0-0.2,0-0.4-0.1-0.7
		l-0.8-4.8L43,7l-0.1-0.4c0.5-0.2,1-0.5,1.5-0.7c0.5-0.3,1-0.5,1.4-0.8l0.1,0.1c0,0.2,0,0.3,0,0.5c0,0.2,0,0.3,0.1,0.5
		c0,0.2,0,0.3,0.1,0.5c0,0.1,0,0.3,0.1,0.4l0.8,4.5c0,0.1,0.1,0.3,0.1,0.4c0,0.1,0.1,0.2,0.2,0.2c0.1,0.1,0.3,0.1,0.5,0.1
		C47.8,12.1,48.1,12.1,48.5,12z"/>
	<path class="st0" d="M53.6,7.1c0.1,0.8,0.2,1.6,0,2.3c-0.1,0.7-0.4,1.3-0.7,1.8c-0.4,0.5-0.8,1-1.4,1.4c-0.6,0.4-1.2,0.7-2,0.9
		l-0.2-0.5c1.1-0.4,1.8-1,2.3-1.7c0.5-0.7,0.7-1.6,0.6-2.7c-0.3,0.2-0.6,0.4-0.9,0.6c-0.3,0.1-0.6,0.2-0.8,0.3
		c-0.4,0.1-0.8,0.1-1.1,0c-0.3-0.1-0.6-0.2-0.9-0.3c-0.3-0.2-0.5-0.4-0.6-0.7c-0.2-0.3-0.3-0.6-0.4-1c-0.1-0.4-0.1-0.8,0-1.2
		c0.1-0.4,0.2-0.7,0.4-1c0.2-0.3,0.5-0.5,0.8-0.7c0.3-0.2,0.8-0.4,1.3-0.4c0.5-0.1,1-0.1,1.4,0c0.4,0.1,0.7,0.3,1,0.6
		c0.3,0.3,0.5,0.6,0.7,1C53.4,6.3,53.6,6.7,53.6,7.1z M52.3,8.2L52.3,8.2l-0.1-0.5c0-0.2-0.1-0.4-0.1-0.6c-0.1-0.2-0.1-0.5-0.2-0.7
		c-0.1-0.2-0.2-0.4-0.3-0.6c-0.1-0.2-0.2-0.4-0.4-0.5c-0.2-0.1-0.3-0.3-0.5-0.3c-0.2-0.1-0.4-0.1-0.6-0.1c-0.2,0-0.4,0.1-0.5,0.2
		c-0.1,0.1-0.2,0.3-0.3,0.4c-0.1,0.2-0.1,0.4-0.1,0.6c0,0.2,0,0.5,0,0.7c0,0.3,0.1,0.5,0.2,0.8c0.1,0.2,0.2,0.4,0.4,0.6
		c0.2,0.2,0.3,0.3,0.6,0.3c0.2,0.1,0.5,0.1,0.7,0c0.1,0,0.3-0.1,0.5-0.1C51.8,8.4,52,8.3,52.3,8.2z"/>
	<path class="st0" d="M59.5,6.1c0.1,0.8,0.2,1.6,0,2.3c-0.1,0.7-0.4,1.3-0.7,1.8c-0.4,0.5-0.8,1-1.4,1.4c-0.6,0.4-1.2,0.7-2,0.9
		l-0.2-0.5c1.1-0.4,1.8-1,2.3-1.7c0.5-0.7,0.7-1.6,0.6-2.7c-0.3,0.2-0.6,0.4-0.9,0.6c-0.3,0.1-0.6,0.2-0.8,0.3
		c-0.4,0.1-0.8,0.1-1.1,0c-0.3-0.1-0.6-0.2-0.9-0.3S54.2,7.8,54,7.6c-0.2-0.3-0.3-0.6-0.4-1c-0.1-0.4-0.1-0.8,0-1.2
		c0.1-0.4,0.2-0.7,0.4-1c0.2-0.3,0.5-0.5,0.8-0.7c0.3-0.2,0.8-0.4,1.3-0.4c0.5-0.1,1-0.1,1.4,0c0.4,0.1,0.7,0.3,1,0.6
		c0.3,0.3,0.5,0.6,0.7,1C59.3,5.3,59.4,5.7,59.5,6.1z M58.2,7.1L58.2,7.1l-0.1-0.5C58.1,6.5,58,6.3,58,6c-0.1-0.2-0.1-0.5-0.2-0.7
		c-0.1-0.2-0.2-0.4-0.3-0.6c-0.1-0.2-0.2-0.4-0.4-0.5c-0.2-0.1-0.3-0.3-0.5-0.3c-0.2-0.1-0.4-0.1-0.6-0.1c-0.2,0-0.4,0.1-0.5,0.2
		c-0.1,0.1-0.2,0.3-0.3,0.4C55,4.7,55,4.9,55,5.1c0,0.2,0,0.5,0,0.7c0,0.3,0.1,0.5,0.2,0.8c0.1,0.2,0.2,0.4,0.4,0.6s0.3,0.3,0.6,0.3
		c0.2,0.1,0.5,0.1,0.7,0c0.1,0,0.3-0.1,0.5-0.1C57.7,7.4,57.9,7.3,58.2,7.1z"/>
	<path class="st0" d="M64.8,2.1c-0.2,0.6-0.4,1.3-0.7,2c-0.2,0.7-0.4,1.3-0.6,2s-0.3,1.4-0.4,2c-0.1,0.7-0.1,1.4-0.1,2
		c-0.1,0-0.3,0.1-0.6,0.1c-0.3,0.1-0.5,0.1-0.7,0.2l-0.1-0.1c0-0.4,0.1-0.7,0.2-1.1C61.9,8.9,62,8.4,62.2,8c0.1-0.4,0.3-0.9,0.4-1.3
		s0.3-0.9,0.4-1.3c0.1-0.4,0.3-0.8,0.4-1.2c0.1-0.4,0.3-0.7,0.4-1.1c0-0.1,0-0.1-0.1-0.1l-2.5,0.5c-0.2,0-0.3,0.1-0.5,0.1
		c-0.1,0-0.2,0.1-0.3,0.2c-0.1,0.1-0.1,0.2-0.2,0.4c0,0.2,0,0.4,0,0.7l-0.4,0l-0.1-0.6c0-0.2-0.1-0.4-0.1-0.5c0-0.2-0.1-0.3-0.1-0.5
		c0-0.2-0.1-0.3-0.1-0.5L64.7,2L64.8,2.1z"/>
</g>
</svg>
