<?xml version="1.0" encoding="UTF-8"?>
<svg id="Layer_1" data-name="Layer 1" xmlns="http://www.w3.org/2000/svg" viewBox="0 0 512 512">
  <defs>
    <style>
      .cls-1 {
        fill: #f7bd89;
      }

      .cls-2 {
        fill: #40aad3;
      }

      .cls-3 {
        fill: #f2b725;
      }

      .cls-4 {
        opacity: .15;
      }

      .cls-4, .cls-5 {
        fill: #fff;
        isolation: isolate;
      }

      .cls-6 {
        fill: #3b4346;
      }

      .cls-7 {
        fill: #e04646;
      }

      .cls-8 {
        fill: #fc9;
      }

      .cls-9 {
        fill: #dbd7d9;
      }

      .cls-10 {
        fill: #ebebeb;
      }

      .cls-11 {
        fill: #54b8ea;
      }

      .cls-12 {
        fill: #fc3;
      }

      .cls-13 {
        fill: #3aa7c9;
      }

      .cls-14 {
        fill: #f15853;
      }

      .cls-5 {
        opacity: .2;
      }

      .cls-15 {
        fill: #bfbbbe;
      }
    </style>
  </defs>
  <g>
    <path class="cls-12" d="M406.59,263.24c-14.04-6.05-23.85-20.2-23.85-36.46s9.82-30.19,23.85-36.35c2.23-.97,3.37-3.65,2.8-5.99-3.48-12.78-8.56-24.82-14.89-36.01-1.31-2.34-4.22-3.14-6.68-2.17-14.09,5.36-30.76,2.4-42.17-9.02s-14.38-28.08-9.02-42.17c.97-2.51,.17-5.36-2.17-6.68-11.18-6.28-23.23-11.36-36.01-14.84-2.4-.63-5.02,.51-5.99,2.8-6.16,14.04-20.09,23.74-36.35,23.74s-30.3-9.76-36.35-23.74c-1.08-2.23-3.65-3.37-6.05-2.8-12.78,3.48-24.82,8.56-36.01,14.84-2.34,1.31-3.14,4.22-2.17,6.68,5.36,14.09,2.4,30.76-9.02,42.17-11.41,11.41-28.08,14.38-42.17,9.02-2.51-.97-5.36-.17-6.68,2.17-6.33,11.18-11.41,23.23-14.89,36.01-.63,2.34,.51,5.02,2.8,5.99,14.04,6.16,23.85,20.2,23.85,36.35s-9.82,30.36-23.85,36.46c-2.23,.97-3.37,3.65-2.8,5.99,3.48,12.78,8.56,24.82,14.89,36.06,1.31,2.34,4.22,3.02,6.68,2.05,14.09-5.36,30.64-2.4,42.06,9.02,11.41,11.41,14.49,28.08,9.13,42.17-.97,2.51-.17,5.36,2.17,6.68,11.18,6.28,23.23,11.36,36.01,14.84,2.4,.63,5.02-.46,6.05-2.8,6.05-14.04,20.09-23.74,36.35-23.74s30.19,9.76,36.35,23.74c.97,2.34,3.6,3.37,5.99,2.8,12.78-3.48,24.82-8.56,36.01-14.84,2.34-1.31,3.14-4.22,2.17-6.68-5.36-14.09-2.34-30.76,9.13-42.17,11.41-11.41,27.96-14.38,42.06-9.02,2.51,.97,5.36,.29,6.68-2.05,6.33-11.24,11.41-23.34,14.89-36.06,.57-2.34-.57-5.02-2.8-5.99h0Zm-150.54,30.47c-36.98,0-66.94-29.9-66.94-66.82s29.9-66.94,66.94-66.94,66.82,29.9,66.82,66.94-29.96,66.82-66.82,66.82Z"/>
    <path class="cls-3" d="M256.06,336.8c-60.66,0-110.08-49.3-110.08-109.96s49.36-109.96,110.08-109.96,109.96,49.3,109.96,109.96-49.36,109.96-109.96,109.96Zm0-202.07c-50.84,0-92.22,41.31-92.22,92.1s41.37,92.1,92.22,92.1,92.1-41.31,92.1-92.1-41.31-92.1-92.1-92.1Z"/>
    <g>
      <path class="cls-4" d="M352.84,142.89c-2.57-1.48-5.02-3.31-7.25-5.59-11.47-11.47-14.44-28.08-9.02-42.17,.97-2.57,.17-5.42-2.17-6.79-11.18-6.16-23.23-11.3-36.01-14.84-2.34-.57-5.02,.57-5.99,2.74-6.22,14.09-20.14,23.85-36.41,23.85s-30.19-9.82-36.29-23.85c-1.08-2.17-3.71-3.31-6.11-2.74-12.73,3.54-24.82,8.62-36.01,14.84-2.34,1.37-3.14,4.22-2.17,6.79,5.42,14.15,2.45,30.7-9.02,42.17-11.47,11.36-28.08,14.32-42.17,9.02-2.45-.97-5.42-.17-6.68,2.05-6.39,11.18-11.47,23.23-14.89,36.01-.68,2.34,.51,5.02,2.74,6.11,14.04,6.11,23.85,20.09,23.85,36.29s-9.82,30.42-23.85,36.46c-2.28,.97-3.42,3.65-2.74,5.99,3.42,12.73,8.56,24.82,14.89,36.12,1.26,2.28,4.22,3.02,6.68,2.05,14.15-5.42,30.59-2.45,42.06,9.02,2.28,2.28,4.22,4.62,5.71,7.25,30.7-3.82,59.35-14.32,84.34-30.02h-.34c-36.98,0-66.88-29.9-66.88-66.82s29.9-66.88,66.88-66.88,66.88,29.9,66.88,66.88v.17c15.69-24.99,26.14-53.53,29.96-84.11h0Z"/>
      <path class="cls-4" d="M298.4,73.56c-2.34-.57-5.02,.57-5.99,2.74-6.22,14.04-20.14,23.8-36.41,23.8s-30.19-9.82-36.29-23.85c-1.08-2.17-3.71-3.31-6.11-2.74-12.73,3.54-24.82,8.62-36.01,14.84-2.34,1.37-3.14,4.22-2.17,6.79,5.42,14.15,2.45,30.7-9.02,42.17-11.47,11.36-28.08,14.32-42.17,9.02-2.45-.97-5.42-.17-6.68,2.05-6.39,11.18-11.47,23.23-14.89,36.01-.68,2.34,.51,5.02,2.74,6.11,14.04,6.11,23.85,20.09,23.85,36.29s-9.82,30.42-23.85,36.46c-2.28,.97-3.42,3.65-2.74,5.99,1.48,5.48,3.31,10.9,5.48,16.21,32.98-.17,64.14-8.22,91.7-22.14-6.85-10.5-10.79-22.94-10.79-36.41,0-36.98,29.9-66.88,66.88-66.88,13.41,0,25.91,3.94,36.29,10.79,14.04-27.56,22.08-58.78,22.26-91.7-5.25-2.23-10.61-3.99-16.09-5.54h0Z"/>
    </g>
  </g>
  <g>
    <path class="cls-14" d="M339.77,389.36H172.23s-4.11-53.53,7.99-70.08c9.42-12.95,58.83-25.34,58.83-25.34h33.78s49.42,12.38,58.83,25.34c12.15,16.55,8.1,70.08,8.1,70.08h0Z"/>
    <path class="cls-1" d="M272.89,271.75v42.28l-16.89,5.48-16.95-5.48v-42.28h33.84Z"/>
    <g>
      <path class="cls-7" d="M239.11,293.94l-13.52,3.77c1.6,13.81,6.79,27.96,17.18,36.41l13.24-14.61c-11.18-7.08-14.49-15.58-16.89-25.56Z"/>
      <path class="cls-7" d="M272.89,293.94l13.52,3.82c-1.6,13.81-6.79,27.85-17.18,36.29l-13.24-14.55c11.18-7.08,14.49-15.58,16.89-25.56Z"/>
      <g>
        <path class="cls-7" d="M312.04,389.36h-5.42l2.68-28.59,2.74,28.59Z"/>
        <path class="cls-7" d="M205.38,389.36h-5.42l2.74-28.59,2.68,28.59Z"/>
      </g>
    </g>
    <path class="cls-8" d="M293.15,240.36c0,20.49-16.66,57.58-37.15,57.58s-37.21-37.09-37.21-57.58,16.66-37.21,37.21-37.21c20.54,.06,37.15,16.66,37.15,37.21h0Z"/>
    <path class="cls-6" d="M222.73,260.11c-.57-14.15,.17-27.05,5.99-34.81,19.57,7.3,37.55,4.57,53.98-8.05-.8,6.85,0,12.5,3.31,16.26,1.14,1.31,1.77,3.14,1.03,4.79-2.45,5.48-.4,13.92,.8,21.86h5.65c3.14-23.97,8.05-50.5-3.42-53.47-7.59-17.92-23.97-24.94-44.62-20.6-1.03,.23-2,.46-2.97,.74-17.63,5.02-28.82,22.43-27.62,40.74,.68,10.5,2.23,20.66,4.45,30.53l3.42,2Z"/>
    <g>
      <path class="cls-8" d="M296.46,258.85c-2.97,5.31-7.65,8.33-10.44,6.73-2.8-1.54-2.68-7.13,.29-12.44,2.97-5.25,7.65-8.33,10.44-6.73s2.62,7.19-.29,12.44Z"/>
      <path class="cls-8" d="M215.54,258.85c2.97,5.31,7.65,8.33,10.44,6.73,2.8-1.54,2.68-7.13-.29-12.44-2.97-5.25-7.65-8.33-10.44-6.73s-2.62,7.19,.29,12.44Z"/>
    </g>
    <path class="cls-5" d="M272.61,187.98c-7.65-3.42-16.89-4.11-27.22-1.94-1.03,.23-2,.46-2.97,.74-17.63,5.02-28.82,22.43-27.62,40.74,.46,6.28,1.14,12.44,2.17,18.49-.63,0-1.2,.17-1.71,.46-2.8,1.6-2.68,7.19,.29,12.38,2.45,4.51,6.16,7.36,8.96,7.13,2.85,7.13,6.62,14.15,11.13,19.74h3.88c18.26,0,33.04-14.78,33.04-33.04v-64.71h.06Z"/>
    <path class="cls-4" d="M317.74,309.47v17.92c0,28.59-23.17,51.81-51.81,51.81h-94.16c-.51-16.32-.29-47.88,8.5-59.92,7.02-9.64,36.24-19,50.67-23.11,4.39-1.26,7.42-2.05,8.05-2.23l.11-.06c2,10.04,7.65,18.49,16.89,25.56,4.62-3.54,8.33-7.42,11.18-11.7,2.85-4.22,4.74-8.9,5.71-13.87,0,0,.11,.06,.29,.06,.97,.23,3.82,1.03,7.93,2.17,9.42,2.74,24.94,7.65,36.64,13.35h0Z"/>
    <path class="cls-4" d="M267.18,307.81c-1.26,6.39-3.42,12.44-6.33,18.09-11.58,22.54-35.09,38.01-62.2,38.01h-26.99c.29-16.21,2.11-35.72,8.62-44.62,7.02-9.64,36.24-19,50.67-23.11,4.39-1.26,7.42-2.05,8.05-2.23l.11-.06c2,10.04,7.65,18.49,16.89,25.56,4.62-3.48,8.33-7.36,11.18-11.64Z"/>
  </g>
  <g>
    <path class="cls-9" d="M241.56,438.6H74.08s-4.11-53.53,7.99-70.08c9.42-12.95,58.83-25.34,58.83-25.34h33.78s49.42,12.38,58.83,25.34c12.1,16.55,8.05,70.08,8.05,70.08Z"/>
    <path class="cls-1" d="M174.68,320.99v42.28l-16.89,5.48-16.89-5.48v-42.28h33.78Z"/>
    <path class="cls-10" d="M140.9,343.19l-13.52,3.77c1.6,13.81,6.79,27.96,17.18,36.41l13.3-14.55c-11.24-7.08-14.55-15.64-16.95-25.62Z"/>
    <path class="cls-10" d="M174.68,343.19l13.52,3.82c-1.6,13.81-6.79,27.85-17.18,36.29l-13.3-14.55c11.24-7.02,14.55-15.58,16.95-25.56h0Z"/>
    <g>
      <path class="cls-15" d="M213.83,438.6h-5.42l2.74-28.59,2.68,28.59Z"/>
      <path class="cls-15" d="M107.17,438.6h-5.42l2.74-28.59,2.68,28.59Z"/>
    </g>
    <path class="cls-8" d="M195,289.61c0,20.49-16.66,57.58-37.15,57.58s-37.21-37.09-37.21-57.58,16.66-37.21,37.21-37.21c20.49,.06,37.15,16.66,37.15,37.21Z"/>
    <path class="cls-6" d="M124.52,309.35c-.57-14.15,.17-27.05,5.99-34.81,19.57,7.3,37.55,4.57,53.98-8.05-.8,6.85,0,12.5,3.31,16.26,1.14,1.31,1.77,3.14,1.03,4.79-2.45,5.48-.4,13.92,.8,21.86h5.65c3.14-23.97,8.05-50.5-3.42-53.47-7.59-17.92-23.97-24.94-44.62-20.6-1.03,.23-2,.46-2.97,.74-17.63,5.02-28.82,22.43-27.62,40.74,.68,10.5,2.23,20.66,4.45,30.53l3.42,2Z"/>
    <g>
      <path class="cls-8" d="M198.25,308.1c-2.97,5.31-7.65,8.33-10.44,6.73-2.8-1.54-2.68-7.13,.29-12.44,2.97-5.25,7.65-8.33,10.44-6.73s2.62,7.19-.29,12.44Z"/>
      <path class="cls-8" d="M117.39,308.1c2.97,5.31,7.65,8.33,10.44,6.73,2.8-1.54,2.68-7.13-.29-12.44-2.97-5.25-7.65-8.33-10.44-6.73-2.85,1.6-2.68,7.19,.29,12.44Z"/>
    </g>
    <g>
      <path class="cls-5" d="M174.45,237.22c-7.65-3.42-16.89-4.11-27.22-1.94-1.03,.23-2,.46-2.97,.74-17.63,5.02-28.82,22.43-27.62,40.74,.46,6.28,1.14,12.44,2.17,18.49-.63,0-1.2,.17-1.71,.46-2.8,1.6-2.68,7.19,.29,12.38,2.45,4.51,6.16,7.36,8.96,7.13,2.85,7.13,6.62,14.15,11.13,19.74h3.88c18.26,0,33.04-14.78,33.04-33.04v-64.71h.06Z"/>
      <path class="cls-4" d="M219.59,358.77v17.92c0,28.59-23.17,51.81-51.81,51.81H73.56c-.51-16.32-.29-47.88,8.5-59.92,7.02-9.64,36.24-19,50.67-23.11,4.39-1.26,7.42-2.05,8.05-2.23l.11-.06c2,10.04,7.65,18.49,16.89,25.56,4.62-3.54,8.33-7.42,11.18-11.7,2.85-4.22,4.74-8.9,5.71-13.87,0,0,.11,.06,.29,.06,.97,.23,3.82,1.03,7.93,2.17,9.42,2.68,24.99,7.59,36.69,13.35h0Z"/>
      <path class="cls-4" d="M168.98,357.06c-1.26,6.39-3.42,12.44-6.33,18.09-11.58,22.54-35.09,38.01-62.2,38.01h-26.99c.29-16.21,2.11-35.72,8.62-44.62,7.02-9.64,36.24-19,50.67-23.11,4.39-1.26,7.42-2.05,8.05-2.23l.11-.06c2,10.04,7.65,18.49,16.89,25.56,4.62-3.48,8.33-7.36,11.18-11.64h0Z"/>
    </g>
  </g>
  <g>
    <path class="cls-11" d="M437.92,438.6h-167.48s-4.11-53.53,7.99-70.08c9.42-12.95,58.83-25.34,58.83-25.34h33.78s49.42,12.38,58.83,25.34c12.15,16.55,8.05,70.08,8.05,70.08h0Z"/>
    <path class="cls-1" d="M371.1,320.99v42.28l-16.89,5.48-16.95-5.48v-42.28h33.84Z"/>
    <path class="cls-13" d="M337.32,343.19l-13.52,3.77c1.6,13.81,6.79,27.96,17.18,36.41l13.3-14.55c-11.3-7.08-14.55-15.64-16.95-25.62Z"/>
    <path class="cls-13" d="M371.1,343.19l13.52,3.82c-1.6,13.81-6.79,27.85-17.18,36.29l-13.3-14.55c11.24-7.02,14.55-15.58,16.95-25.56Z"/>
    <g>
      <path class="cls-2" d="M410.25,438.6h-5.42l2.68-28.59,2.74,28.59Z"/>
      <path class="cls-2" d="M303.59,438.6h-5.42l2.68-28.59,2.74,28.59Z"/>
    </g>
    <path class="cls-8" d="M391.36,289.61c0,20.49-16.66,57.58-37.15,57.58s-37.21-37.09-37.21-57.58,16.66-37.21,37.21-37.21c20.54,.06,37.15,16.66,37.15,37.21Z"/>
    <path class="cls-6" d="M320.94,309.35c-.57-14.15,.17-27.05,5.99-34.81,19.57,7.3,37.55,4.57,53.98-8.05-.8,6.85,0,12.5,3.31,16.26,1.14,1.31,1.77,3.14,1.03,4.79-2.45,5.48-.4,13.92,.8,21.86h5.65c3.14-23.97,8.05-50.5-3.42-53.47-7.59-17.92-23.97-24.94-44.62-20.6-1.03,.23-2,.46-2.97,.74-17.63,5.02-28.82,22.43-27.62,40.74,.68,10.5,2.23,20.66,4.45,30.53l3.42,2Z"/>
    <g>
      <path class="cls-8" d="M394.61,308.1c-2.97,5.31-7.65,8.33-10.44,6.73-2.8-1.54-2.68-7.13,.29-12.44,2.97-5.25,7.65-8.33,10.44-6.73,2.85,1.6,2.68,7.19-.29,12.44Z"/>
      <path class="cls-8" d="M313.75,308.1c2.97,5.31,7.65,8.33,10.44,6.73,2.8-1.54,2.68-7.13-.29-12.44-2.97-5.25-7.65-8.33-10.44-6.73s-2.62,7.19,.29,12.44Z"/>
    </g>
    <g>
      <path class="cls-5" d="M370.81,237.22c-7.65-3.42-16.89-4.11-27.22-1.94-1.03,.23-2,.46-2.97,.74-17.63,5.02-28.82,22.43-27.62,40.74,.46,6.28,1.14,12.44,2.17,18.49-.63,0-1.2,.17-1.71,.46-2.8,1.6-2.68,7.19,.29,12.38,2.45,4.51,6.16,7.36,8.96,7.13,2.85,7.13,6.62,14.15,11.13,19.74h3.88c18.26,0,33.04-14.78,33.04-33.04v-64.71h.06Z"/>
      <path class="cls-4" d="M415.95,358.77v17.92c0,28.59-23.17,51.81-51.81,51.81h-94.21c-.51-16.32-.29-47.88,8.5-59.92,7.02-9.64,36.24-19,50.67-23.11,4.39-1.26,7.42-2.05,8.05-2.23l.11-.06c2,10.04,6.62,19.06,16.89,25.56,6.62-4.39,8.9-7.3,11.7-11.58,2.85-4.22,4.22-9.02,5.19-13.98,0,0,.11,.06,.29,.06,.97,.23,3.82,1.03,7.93,2.17,9.42,2.68,24.99,7.59,36.69,13.35h0Z"/>
      <path class="cls-4" d="M365.91,357.17c-1.26,6.39-3.94,12.38-6.85,17.98-11.58,22.54-35.09,38.01-62.2,38.01h-26.99c.29-16.21,2.11-35.72,8.62-44.62,7.02-9.64,36.24-19,50.67-23.11,4.39-1.26,7.42-2.05,8.05-2.23l.11-.06c2,10.04,6.51,19.12,16.89,25.56,5.65-3.48,8.85-7.25,11.7-11.53h0Z"/>
    </g>
  </g>
</svg>