<?xml version="1.0" encoding="UTF-8"?>
<svg id="Layer_1" data-name="Layer 1" xmlns="http://www.w3.org/2000/svg" viewBox="0 0 512 512">
  <defs>
    <style>
      .cls-1 {
        fill: #ed3c94;
      }

      .cls-2 {
        fill: #485959;
      }

      .cls-3 {
        fill: #ffe89c;
      }

      .cls-4 {
        fill: #607882;
      }

      .cls-5 {
        fill: #ff8859;
      }

      .cls-6 {
        fill: #ffb655;
      }

      .cls-7 {
        fill: #c3126a;
      }

      .cls-8 {
        fill: #f37bb6;
      }
    </style>
  </defs>
  <g>
    <path class="cls-4" d="M189.98,449.94H114.23c-6.46,0-11.62-5.38-11.35-11.83l15.15-365.15c.25-6.09,5.26-10.89,11.35-10.89h45.45c6.09,0,11.1,4.81,11.35,10.89l15.15,365.15c.27,6.46-4.89,11.83-11.35,11.83Z"/>
    <path class="cls-2" d="M186.19,72.96c-.25-6.09-5.26-10.89-11.35-10.89h-22.73V449.94h37.88c6.46,0,11.62-5.38,11.35-11.83l-15.15-365.15Z"/>
    <path class="cls-8" d="M69.44,395.56c4.98,5.19,11.94,8.17,19.14,8.17h127.06c7.26,0,14.28-3.02,19.26-8.29s7.61-12.45,7.21-19.69l-1.45-26.06-9.66-24.74,7.08-21.63-2.58-46.37-9.05-25.19,6.48-21.18-2.58-46.37-19.05-15.03,12.09-30.27c-4.85-6.47-12.58-10.64-21.23-10.64H102.04c-14.06,0-25.69,11-26.47,25.04l-1.42,25.59,6.85,23.61-9.51,24.26-2.65,47.77,6.86,22.67-9.52,25.1-2.65,47.77,11.41,25.61-5.5,19.86Z"/>
    <g>
      <path class="cls-1" d="M242.11,375.74l-1.45-26.06-9.66-24.74,7.08-21.63-2.58-46.37-9.05-25.19,6.48-21.18-2.58-46.37-19.05-15.03,12.09-30.27c-4.85-6.47-12.58-10.64-21.23-10.64h-50.06V403.73h63.53c7.26,0,14.28-3.02,19.26-8.29s7.61-12.45,7.21-19.69h0Z"/>
      <path class="cls-1" d="M62.1,375.74c-.4,7.24,2.23,14.42,7.21,19.69,.04,.04,.08,.08,.12,.12l171.22-45.88-2.58-46.37-174.56,46.77-1.43,25.66Z"/>
      <path class="cls-1" d="M66.18,302.31l169.33-45.37-2.58-46.37-164.1,43.97-2.65,47.77Z"/>
      <path class="cls-1" d="M228.64,133.32c-.3-5.4-2.21-10.35-5.24-14.4l-149.25,39.99-2.66,47.87,158.87-42.57-1.72-30.89Z"/>
    </g>
    <path class="cls-7" d="M238.08,303.31l-85.98,23.04v47.06l88.55-23.73-2.58-46.37Z"/>
    <path class="cls-7" d="M232.93,210.58l-80.83,21.66v47.06l83.4-22.35-2.58-46.37Z"/>
    <path class="cls-7" d="M228.64,133.32c-.3-5.4-2.21-10.35-5.24-14.4l-71.29,19.1v47.16l78.25-20.97-1.72-30.89Z"/>
  </g>
  <g>
    <path class="cls-4" d="M397.77,449.94h-75.76c-6.46,0-11.62-5.38-11.35-11.83l15.15-365.15c.25-6.09,5.26-10.89,11.35-10.89h45.45c6.09,0,11.1,4.81,11.35,10.89l15.15,365.15c.27,6.46-4.89,11.83-11.35,11.83Z"/>
    <path class="cls-2" d="M393.98,72.96c-.25-6.09-5.26-10.89-11.35-10.89h-22.73V449.94h37.88c6.46,0,11.62-5.38,11.35-11.83l-15.15-365.15Z"/>
    <path class="cls-3" d="M277.23,395.56c4.98,5.19,11.94,8.17,19.14,8.17h127.06c7.26,0,14.28-3.02,19.26-8.29s7.61-12.45,7.21-19.69l-1.45-26.06-9.66-24.74,7.08-21.63-2.58-46.37-9.05-25.19,6.48-21.18-2.58-46.37-19.05-15.03,12.09-30.27c-4.85-6.47-12.58-10.64-21.23-10.64h-100.12c-14.07,0-25.69,11-26.47,25.04l-1.42,25.59,6.85,23.61-9.51,24.26-2.65,47.77,6.86,22.67-9.52,25.1-2.65,47.77,11.41,25.61-5.5,19.86Z"/>
    <g>
      <path class="cls-6" d="M449.9,375.74l-1.45-26.06-9.66-24.74,7.08-21.63-2.58-46.37-9.05-25.19,6.48-21.18-2.58-46.37-19.05-15.03,12.09-30.27c-4.85-6.47-12.58-10.64-21.23-10.64h-50.06V403.73h63.53c7.26,0,14.28-3.02,19.26-8.29s7.61-12.45,7.21-19.69h0Z"/>
      <path class="cls-6" d="M269.89,375.74c-.4,7.24,2.23,14.42,7.21,19.69,.04,.04,.08,.08,.12,.12l171.22-45.88-2.58-46.37-174.56,46.77-1.43,25.66Z"/>
      <path class="cls-6" d="M273.97,302.31l169.33-45.37-2.58-46.37-164.1,43.97-2.65,47.77Z"/>
      <path class="cls-6" d="M436.43,133.32c-.3-5.4-2.21-10.35-5.24-14.4l-149.25,39.99-2.66,47.87,158.87-42.57-1.72-30.89Z"/>
    </g>
    <path class="cls-5" d="M445.87,303.31l-85.98,23.04v47.06l88.55-23.73-2.58-46.37Z"/>
    <path class="cls-5" d="M440.72,210.58l-80.83,21.66v47.06l83.4-22.35-2.58-46.37Z"/>
    <path class="cls-5" d="M436.43,133.32c-.3-5.4-2.21-10.35-5.24-14.4l-71.29,19.1v47.16l78.25-20.97-1.72-30.89Z"/>
  </g>
</svg>