<?xml version="1.0" encoding="UTF-8"?>
<svg id="Layer_1" data-name="Layer 1" xmlns="http://www.w3.org/2000/svg" viewBox="0 0 512 512">
  <defs>
    <style>
      .cls-1 {
        fill: #fff;
      }

      .cls-2 {
        fill: #fb7b76;
      }

      .cls-3 {
        fill: #547580;
      }

      .cls-4 {
        fill: #ff5364;
      }

      .cls-5 {
        fill: #df4d60;
      }

      .cls-6 {
        fill: #e4c05c;
      }

      .cls-7 {
        fill: #f3d55b;
      }
    </style>
  </defs>
  <g id="Page-1">
    <g id="_008---Certificate" data-name="008---Certificate">
      <path id="Shape" class="cls-7" d="M362.43,405.82h83.62c16.79,0,30.41-13.61,30.41-30.41V101.73c0-16.79-13.61-30.41-30.41-30.41H65.95c-16.79,0-30.41,13.61-30.41,30.41V375.41c0,16.79,13.61,30.41,30.41,30.41H362.43Z"/>
      <path id="Shape-2" data-name="Shape" class="cls-1" d="M309.21,345H111.56c-16.79,0-30.41-13.61-30.41-30.41V162.55c0-16.79,13.61-30.41,30.41-30.41h197.65v212.86Z"/>
      <path id="Shape-3" data-name="Shape" class="cls-6" d="M309.21,352.6H111.56c-20.98-.03-37.99-17.03-38.01-38.01V162.55c.03-20.98,17.03-37.99,38.01-38.01h197.65c4.2,0,7.6,3.4,7.6,7.6v212.86c0,4.2-3.4,7.6-7.6,7.6ZM111.56,139.74c-12.6,0-22.81,10.21-22.81,22.81v152.04c0,12.6,10.21,22.81,22.81,22.81h190.05V139.74H111.56Z"/>
      <g>
        <path id="Shape-4" data-name="Shape" class="cls-3" d="M225.59,246.17H119.16c-4.2,0-7.6-3.4-7.6-7.6s3.4-7.6,7.6-7.6h106.43c4.2,0,7.6,3.4,7.6,7.6s-3.4,7.6-7.6,7.6Z"/>
        <path id="Shape-5" data-name="Shape" class="cls-3" d="M225.59,215.76H119.16c-4.2,0-7.6-3.4-7.6-7.6s3.4-7.6,7.6-7.6h106.43c4.2,0,7.6,3.4,7.6,7.6s-3.4,7.6-7.6,7.6Z"/>
        <path id="Shape-6" data-name="Shape" class="cls-3" d="M225.59,185.35H119.16c-4.2,0-7.6-3.4-7.6-7.6s3.4-7.6,7.6-7.6h106.43c4.2,0,7.6,3.4,7.6,7.6s-3.4,7.6-7.6,7.6Z"/>
        <path id="Shape-7" data-name="Shape" class="cls-3" d="M119.16,322.19c-3.6,0-6.71-2.52-7.45-6.05-.74-3.53,1.11-7.09,4.41-8.52,5.3-1.9,10.2-4.77,14.44-8.47,3.88-3.81,6.01-9.06,5.88-14.5-.23-3.76,2.33-7.13,6.02-7.9s7.39,1.27,8.7,4.8c2.3,6.85,6.91,12.7,13.04,16.53,1.45,1.06,3.24,1.52,5.02,1.29,1.13-.75,1.78-2.04,1.71-3.4-.27-3.77,2.28-7.16,5.97-7.96s7.41,1.22,8.74,4.76c.76,2.01,2.58,4.87,9.67,6.51l5.88,1.39c10.22,3.06,20.84,4.55,31.5,4.41,4.19-.3,7.83,2.85,8.13,7.04,.3,4.19-2.85,7.83-7.04,8.13-12.22,.26-24.41-1.35-36.14-4.79l-5.75-1.36c-3.97-.84-7.76-2.37-11.2-4.52-1.71,1.76-3.79,3.14-6.08,4.03-5.98,2.01-12.56,1.17-17.84-2.28-3.79-2.17-7.2-4.95-10.1-8.21-1.49,2.49-3.28,4.79-5.32,6.84-5.57,5.07-12.07,9.01-19.14,11.61-.96,.42-1.99,.64-3.04,.63h0Z"/>
      </g>
      <path id="Shape-8" data-name="Shape" class="cls-4" d="M362.43,360.2v72.87c0,3.07-1.85,5.85-4.69,7.02-2.84,1.18-6.11,.53-8.28-1.65l-17.43-17.43-17.43,17.43c-2.17,2.17-5.44,2.82-8.28,1.65-2.84-1.18-4.69-3.95-4.69-7.02V253.77c2.17,2.14,5.09,3.34,8.13,3.34,1.38,0,2.74-.26,4.03-.76,1.28-.51,2.65-.77,4.03-.76,4.57,.03,8.72,2.69,10.64,6.84,1.89,4.13,6.02,6.78,10.57,6.77,2.94,.01,5.77-1.1,7.91-3.12,.08-.08,.23-.15,.3-.23l15.2,94.34Z"/>
      <path id="Shape-9" data-name="Shape" class="cls-5" d="M408.04,253.77v103.28c0,3.07-1.85,5.85-4.69,7.02-2.84,1.18-6.11,.53-8.28-1.65l-17.43-17.43-17.43,17.43c-2.17,2.17-5.44,2.82-8.28,1.65-2.84-1.18-4.69-3.95-4.69-7.02v-91.23c4.45-3.94,11.17-3.84,15.51,.23,2.14,2.01,4.97,3.13,7.91,3.12,4.54,.01,8.68-2.63,10.57-6.77,1.92-4.15,6.07-6.81,10.64-6.84,1.38-.01,2.75,.25,4.03,.76,1.28,.5,2.65,.76,4.03,.76,3.04,0,5.96-1.18,8.13-3.31h0Z"/>
      <path id="Shape-10" data-name="Shape" class="cls-2" d="M442.94,200.86c2.01,2.14,3.13,4.97,3.12,7.91,.01,4.54-2.63,8.68-6.77,10.57-4.15,1.92-6.81,6.07-6.84,10.64-.01,1.38,.25,2.75,.76,4.03,.5,1.28,.76,2.65,.76,4.03-.03,6.26-4.99,11.39-11.25,11.63-6.08,.22-10.95,5.1-11.18,11.18-.07,3-1.33,5.84-3.5,7.91-2.17,2.14-5.09,3.34-8.13,3.34-1.38,0-2.74-.26-4.03-.76-1.28-.51-2.65-.77-4.03-.76-4.57,.03-8.72,2.69-10.64,6.84-1.89,4.13-6.02,6.78-10.57,6.77-2.94,.01-5.77-1.1-7.91-3.12-4.34-4.07-11.05-4.17-15.51-.23-.08,.08-.23,.15-.3,.23-2.14,2.01-4.97,3.13-7.91,3.12-4.54,.01-8.68-2.63-10.57-6.77-1.92-4.15-6.07-6.81-10.64-6.84-1.38-.01-2.75,.25-4.03,.76-1.28,.5-2.65,.76-4.03,.76-3.05,0-5.97-1.2-8.13-3.34-2.17-2.07-3.43-4.91-3.5-7.91-.22-6.08-5.1-10.95-11.18-11.18-6.26-.24-11.22-5.37-11.25-11.63,0-1.38,.26-2.74,.76-4.03,.51-1.28,.77-2.65,.76-4.03-.03-4.57-2.69-8.72-6.84-10.64-4.13-1.89-6.78-6.02-6.77-10.57-.01-2.94,1.1-5.77,3.12-7.91,4.16-4.45,4.16-11.36,0-15.81-2.01-2.14-3.13-4.97-3.12-7.91-.01-4.54,2.63-8.68,6.77-10.57,4.15-1.92,6.81-6.07,6.84-10.64,.01-1.38-.25-2.75-.76-4.03-.5-1.28-.76-2.65-.76-4.03,.03-6.26,4.99-11.39,11.25-11.63,6.08-.22,10.95-5.1,11.18-11.18,.24-6.26,5.37-11.22,11.63-11.25,1.38,0,2.74,.26,4.03,.76,1.28,.51,2.65,.77,4.03,.76,4.57-.03,8.72-2.69,10.64-6.84,1.89-4.13,6.02-6.78,10.57-6.77,2.94-.01,5.77,1.1,7.91,3.12,4.45,4.16,11.36,4.16,15.81,0,2.73-2.54,6.51-3.61,10.17-2.89s6.74,3.15,8.31,6.54c1.92,4.15,6.07,6.81,10.64,6.84,1.38,.01,2.75-.25,4.03-.76,1.28-.5,2.65-.76,4.03-.76,6.26,.03,11.39,4.99,11.63,11.25,.22,6.08,5.1,10.95,11.18,11.18,6.26,.24,11.22,5.37,11.25,11.63,0,1.38-.26,2.74-.76,4.03-.51,1.28-.77,2.65-.76,4.03,.03,4.57,2.69,8.72,6.84,10.64,4.13,1.89,6.78,6.02,6.77,10.57,.01,2.94-1.1,5.77-3.12,7.91-4.16,4.45-4.16,11.36,0,15.81h0Z"/>
      <circle id="Oval" class="cls-1" cx="354.83" cy="192.96" r="53.21"/>
      <path id="Shape-11" data-name="Shape" class="cls-7" d="M354.83,253.77c-33.59,0-60.82-27.23-60.82-60.82s27.23-60.82,60.82-60.82,60.82,27.23,60.82,60.82c-.04,33.57-27.24,60.78-60.82,60.82Zm0-106.43c-25.19,0-45.61,20.42-45.61,45.61s20.42,45.61,45.61,45.61,45.61-20.42,45.61-45.61c-.03-25.18-20.43-45.59-45.61-45.61Z"/>
    </g>
  </g>
</svg>