<?xml version="1.0" encoding="UTF-8"?>
<svg id="Layer_1" data-name="Layer 1" xmlns="http://www.w3.org/2000/svg" viewBox="0 0 512 512">
  <defs>
    <style>
      .cls-1 {
        fill: #ffb41f;
      }

      .cls-2 {
        fill: #c9dfff;
      }

      .cls-3 {
        fill: #ebebeb;
      }

      .cls-4 {
        fill: #1cc8eb;
      }

      .cls-5 {
        fill: #9e9e9e;
      }

      .cls-6 {
        fill: #fa0;
      }
    </style>
  </defs>
  <path class="cls-3" d="M222.75,433.68c0,11.31,9.17,20.49,20.49,20.49h27.32c11.31,0,20.49-9.17,20.49-20.49v-40.98h-68.3v40.98Z"/>
  <path class="cls-2" d="M190.57,318.65c-5.97-3.85-11.6-8.21-16.83-13.03-4.46,17.14-21.31,28.02-38.77,25.01-17.46-3-29.71-18.87-28.2-36.52s16.3-31.2,34.02-31.17c1.04,0,2.05,.22,3.04,.31-6.47-15.22-9.81-31.58-9.81-48.11h-8.69l-4.72,22.45c-.47,2.24-2.03,4.09-4.15,4.94-2.12,.85-4.53,.58-6.41-.72l-18.87-13.01-20.49,20.49,12.98,18.87c1.3,1.88,1.57,4.29,.72,6.41-.85,2.12-2.7,3.68-4.94,4.15l-22.42,4.72v27.32l22.44,4.72c2.23,.47,4.09,2.03,4.94,4.15,.85,2.12,.58,4.53-.72,6.41l-13,18.87,20.49,20.49,18.87-12.98c1.88-1.3,4.29-1.57,6.41-.72,2.12,.85,3.68,2.7,4.15,4.94l4.71,22.42h27.32l4.71-22.45c.47-2.24,2.03-4.1,4.15-4.94,2.12-.85,4.53-.58,6.41,.72l18.87,13.01,21.44-21.44c-2.25-10.47-8.62-19.59-17.68-25.3Z"/>
  <path class="cls-1" d="M379.83,215.13c0-58.94-41.85-109.59-99.73-120.71-57.88-11.12-115.52,20.4-137.37,75.13s-1.79,117.29,47.84,149.09c11.37,7.05,18.36,19.42,18.52,32.8v27.6c0,11.31,9.17,20.49,20.49,20.49h54.64c11.31,0,20.49-9.17,20.49-20.49v-27.03c.17-13.7,7.3-26.36,18.92-33.62,35.06-22.64,56.23-61.53,56.21-103.26Z"/>
  <path class="cls-4" d="M422.12,142.88l21.47-16.1-24.59-32.78-21.47,16.1c-4.42,3.31-10.4,3.63-15.15,.82s-7.34-8.21-6.56-13.68l3.79-26.56-40.57-5.8-3.79,26.56c-.78,5.47-4.78,9.93-10.13,11.3-5.35,1.37-11-.61-14.32-5.04l-16.1-21.47-32.78,24.59,16.1,21.47c3.31,4.42,3.63,10.4,.82,15.15s-8.21,7.34-13.68,6.56l-26.56-3.79-5.8,40.57,26.57,3.79c5.47,.78,9.93,4.78,11.3,10.13,1.37,5.35-.62,11-5.04,14.32l-21.47,16.1,24.59,32.78,21.47-16.1c4.42-3.31,10.4-3.64,15.16-.83,4.75,2.81,7.34,8.22,6.56,13.69l-3.82,26.55,40.57,5.8,3.82-26.57c.78-5.47,4.78-9.93,10.13-11.3,5.35-1.37,11,.62,14.32,5.04l16.11,21.47,32.78-24.59-16.11-21.47c-3.31-4.42-3.64-10.4-.83-15.16,2.81-4.75,8.22-7.34,13.69-6.56l26.56,3.79,5.8-40.57-26.56-3.79c-5.47-.78-9.92-4.78-11.3-10.13-1.37-5.35,.61-11,5.03-14.31Zm-78.24,80.87c-26.4,0-47.81-21.4-47.81-47.81s21.4-47.81,47.81-47.81,47.81,21.41,47.81,47.81-21.4,47.81-47.81,47.81Z"/>
  <path class="cls-5" d="M222.75,413.19h68.3v13.66h-68.3v-13.66Z"/>
  <g>
    <path class="cls-6" d="M250.07,358.55h13.66v20.49h-13.66v-20.49Z"/>
    <path class="cls-6" d="M263.73,344.89h-13.66c0-18.06-11.14-34.24-28-40.71-33.61-13.14-56.96-44.09-60.37-80.02-3.41-35.93,13.7-70.71,44.24-89.94l7.25,11.55c-26.18,16.48-40.86,46.3-37.94,77.1,2.92,30.8,22.93,57.33,51.75,68.6,22.14,8.47,36.75,29.72,36.73,53.42Z"/>
    <path class="cls-6" d="M393.49,310.75h34.15c3.77,0,6.83,3.05,6.83,6.83s-3.06,6.83-6.83,6.83h-34.15c-3.77,0-6.83-3.06-6.83-6.83s3.06-6.83,6.83-6.83Z"/>
    <path class="cls-6" d="M379.83,351.73c2.41-2.9,6.72-3.29,9.62-.88l30.49,25.4c2.9,2.41,3.29,6.72,.88,9.62-2.42,2.9-6.72,3.29-9.62,.88l-30.49-25.4c-2.9-2.41-3.29-6.72-.87-9.62Z"/>
    <path class="cls-6" d="M352.51,365.38c3.77,0,6.83,3.05,6.83,6.83v34.15c0,3.77-3.06,6.83-6.83,6.83s-6.83-3.06-6.83-6.83v-34.15c0-3.77,3.06-6.83,6.83-6.83Z"/>
    <path class="cls-6" d="M63.81,172.7l41.38-10.34c3.66-.91,7.37,1.31,8.28,4.97s-1.31,7.36-4.97,8.28l-41.38,10.34c-3.66,.91-7.37-1.31-8.28-4.97-.91-3.66,1.31-7.36,4.97-8.28Z"/>
    <path class="cls-6" d="M72.5,99.03c2.19-3.07,6.46-3.77,9.52-1.58l36.69,26.21c3.07,2.19,3.78,6.46,1.59,9.52s-6.46,3.78-9.52,1.58l-36.69-26.21c-3.07-2.19-3.78-6.46-1.59-9.52Z"/>
    <path class="cls-6" d="M133.66,58.05c3.65-.93,7.37,1.27,8.31,4.93l10.58,41.4c.93,3.65-1.27,7.38-4.93,8.31s-7.37-1.27-8.31-4.93l-10.58-41.4c-.93-3.65,1.27-7.38,4.93-8.31Z"/>
  </g>
</svg>