<?xml version="1.0" encoding="UTF-8"?>
<svg id="Layer_1" data-name="Layer 1" xmlns="http://www.w3.org/2000/svg" viewBox="0 0 512 512">
  <defs>
    <style>
      .cls-1 {
        fill: #49cb5c;
      }

      .cls-2 {
        fill: #baeb6c;
      }

      .cls-3 {
        fill: #89c8fd;
      }

      .cls-4 {
        fill: #09a66d;
      }

      .cls-5 {
        fill: #96d629;
      }

      .cls-6 {
        fill: #07b128;
      }

      .cls-7 {
        fill: #60b6ff;
      }
    </style>
  </defs>
  <path class="cls-3" d="M369.86,289.7c0-81.35-65.77-147.3-146.91-147.3S76.05,208.35,76.05,289.7s65.77,147.3,146.91,147.3,146.91-65.95,146.91-147.3Z"/>
  <path class="cls-7" d="M222.96,142.41c-7.54,0-14.95,.57-22.18,1.67,70.61,10.72,124.72,71.84,124.72,145.63s-54.11,134.9-124.72,145.63c7.23,1.1,14.64,1.67,22.18,1.67,81.13,0,146.91-65.95,146.91-147.3s-65.77-147.3-146.91-147.3Z"/>
  <g>
    <path class="cls-2" d="M203.86,199.65c-22.63,14.18-39.6,36.87-26.87,62.4,12.73,25.53,41.02,15.6,67.19,12.05,26.17-3.54,6.37,77.29,21.92,97.14,15.56,19.85,59.4-19.85,55.16-45.38-6.28-37.79-8.49-51.05,42.43-78l.14-.05c-17.16-58.12-69.11-101.24-131.67-105.11v.22s-5.67,42.54-28.29,56.73Z"/>
    <path class="cls-2" d="M315,174.91s.02,.02,.03,.02c-.01,0-.02-.01-.03-.02Z"/>
    <path class="cls-2" d="M332.96,192.09s0,0,0,0h0Z"/>
    <path class="cls-2" d="M125.36,356.36c-6.8-10.36,12.02-34.74,16.26-53.18,4.24-18.44-21.22-17.02-28.99-23.4s-18.39-34.03-26.17-40.42l-1.24-.98c-5.93,15.98-9.17,33.27-9.17,51.32,0,48.69,23.56,91.85,59.87,118.67l.04-3.09s5.66-24.11-10.61-48.93Z"/>
    <path class="cls-2" d="M321.26,325.87c-.03-.18-.06-.37-.09-.55-2.81,11.35-6.94,22.19-12.2,32.33,8.36-9.86,13.94-21.89,12.3-31.78Z"/>
  </g>
  <path class="cls-5" d="M232.16,142.7v.22s-.48,3.55-1.69,8.94c51.52,19.5,89.23,67.19,94.42,124.31,6.49-8.88,18.36-17.49,38.81-28.3l.14-.05c-17.16-58.12-69.11-101.24-131.67-105.11Z"/>
  <path class="cls-4" d="M222.76,479.79c-10.4,0-20.88-.85-31.36-2.58-50.06-8.27-93.91-35.53-123.47-76.78-29.55-41.24-41.28-91.53-33.01-141.59,.6-3.63,4.03-6.08,7.65-5.48,3.63,.6,6.08,4.02,5.48,7.65-7.69,46.55,3.21,93.32,30.7,131.67s68.26,63.71,114.82,71.4c96.12,15.88,187.21-49.4,203.08-145.5,7.69-46.55-3.21-93.32-30.7-131.67-27.48-38.35-68.26-63.71-114.81-71.4-3.63-.6-6.08-4.02-5.48-7.65,.6-3.63,4.03-6.08,7.65-5.48,50.07,8.27,93.92,35.53,123.47,76.78,29.55,41.24,41.28,91.53,33.01,141.59-8.27,50.06-35.54,93.91-76.78,123.46-32.62,23.37-70.89,35.59-110.24,35.59Z"/>
  <path class="cls-1" d="M182.35,192.96c-71.04-12.05-115.11-101.5-115.11-101.5,0,0,71.11-69.9,142.15-57.85,71.04,12.05,115.11,101.5,115.11,101.5,0,0-71.11,69.91-142.15,57.86Z"/>
  <path class="cls-6" d="M209.4,33.61c-13.57-2.3-27.13-1.61-40.21,1.01,68.07,15.28,110.06,100.49,110.06,100.49,0,0-46.55,45.75-101.95,56.85,1.67,.38,3.35,.72,5.05,1.01,71.04,12.05,142.15-57.86,142.15-57.86,0,0-44.07-89.45-115.11-101.5Z"/>
  <path class="cls-4" d="M320.49,127.68l-69.47-11.72L186.12,32.4c-5.18,.3-10.31,.97-15.37,1.92l60.86,78.37-52.39-8.84-44.7-57.83c-4.19,1.89-8.27,3.9-12.2,5.98l37.55,48.59-86.62-14.62c-3.89,3.4-6.02,5.49-6.02,5.49,0,0,1.43,2.89,4.17,7.69l86.15,14.53-47.78,36.94c3.08,3.17,6.3,6.3,9.68,9.34l55.96-43.27,55.46,9.36-75.43,58.35c4.68,2.19,9.52,4.08,14.51,5.6l78.78-60.94,69.52,11.73c4.03-3.51,6.25-5.69,6.25-5.69,0,0-1.38-2.79-4.02-7.43Z"/>
  <path class="cls-1" d="M372.83,106.14c19.06-45.1,85.09-60.28,85.09-60.28,0,0,35.13,57.93,16.08,103.03-19.05,45.1-85.09,60.28-85.09,60.28,0,0-35.13-57.93-16.08-103.03Z"/>
  <path class="cls-6" d="M457.92,45.86s-15.01,3.46-32.79,11.96c9.12,19.32,23.58,58.53,9.83,91.07-9.97,23.59-32.79,38.99-52.29,48.32,3.52,7.46,6.25,11.96,6.25,11.96,0,0,66.03-15.18,85.09-60.28,19.05-45.1-16.08-103.03-16.08-103.03Z"/>
  <path class="cls-4" d="M479.39,111.69l-50.78,21.3,33.34-79.7c-2.39-4.71-4.04-7.43-4.04-7.43,0,0-3.14,.72-8.25,2.32l-34.45,82.37-21.37-52.57c-3.62,3.19-7.03,6.66-10.13,10.42l24.21,59.57-22.74,54.37c2.22,4.33,3.73,6.82,3.73,6.82,0,0,3.41-.79,8.91-2.53l23.48-56.14,58.08-24.36c.39-4.83,.37-9.66,.02-14.44Z"/>
</svg>