<?xml version="1.0" encoding="utf-8"?>
<!-- Generator: Adobe Illustrator 27.0.1, SVG Export Plug-In . SVG Version: 6.00 Build 0)  -->
<svg version="1.1" id="katman_1" xmlns="http://www.w3.org/2000/svg" xmlns:xlink="http://www.w3.org/1999/xlink" x="0px" y="0px"
	 viewBox="0 0 250 250" style="enable-background:new 0 0 250 250;" xml:space="preserve">
<style type="text/css">
	.st0{fill:#FFFFFF;}
</style>
<path class="st0" d="M175.7,116.6c-0.5-1.9-1.2-1.9-2.1-0.2c-8.6,17.1-17.6,34.8-27.2,52.9c-3.2,6.1-6.6,10.2-10.2,12.4
	c-9.2,5.7-24.1,3.2-29.7-7.4c-10-18.8-20.1-38-30.3-57.8c-0.9-1.8-1.7-1.8-2.2,0.2l-16.5,64c-0.3,1.3-1.2,2-2.5,2l-29.6,0.1
	c-1,0-1.9-0.8-1.9-1.9c0-0.2,0-0.4,0.1-0.6c9.2-30.7,18.5-62.7,28.1-96C56.9,66,79.7,63,89.3,79.7c12.4,21.6,24.3,43,35.5,64.2
	c0.3,0.5,0.9,0.7,1.4,0.4c0.2-0.1,0.4-0.3,0.4-0.4c11.8-22.6,23.9-44.3,36-65.1c9.5-16.1,32.1-11.8,36.8,5.1
	c9.4,33.5,18.7,66,27.9,97.4c0.1,0.5-0.1,1-0.6,1.2c-0.1,0-0.2,0-0.3,0l-32.1,0.1c-0.6,0-1.2-0.4-1.4-1L175.7,116.6L175.7,116.6z"/>
</svg>
